<svg version="1.1"
width="399" height="300"
xmlns="http://www.w3.org/2000/svg">
<polyline points="
3.000 31.835, 3.127 35.086, 3.507 38.317, 4.139 41.509, 5.017 44.642, 
6.138 47.697, 7.493 50.655, 9.075 53.499, 10.874 56.210, 12.879 58.772, 
15.078 61.171, 17.457 63.390, 20.003 65.417, 22.698 67.239, 25.528 68.846, 
28.474 70.226, 31.519 71.373, 34.645 72.278, 37.831 72.937, 41.059 73.345, 
44.309 73.500, 47.562 73.400, 50.796 73.048, 53.994 72.444, 57.134 71.592, 
60.198 70.498, 63.168 69.168, 66.025 67.611, 68.751 65.835, 71.331 63.852, 
73.748 61.674, 75.988 59.313, 78.037 56.786, 79.882 54.106, 81.512 51.290, 
82.918 48.355, 84.091 45.320, 85.023 42.203, 85.709 39.022, 86.144 35.798, 
86.327 32.549, 86.256 29.296, 85.931 26.058, 85.354 22.856, 84.530 19.708, 
83.462 16.635, 82.158 13.654, 80.625 10.784, 78.872 8.042, 76.912 5.446, 
76.912 5.446, 76.586 5.077, 76.235 4.733, 75.859 4.416, 75.461 4.127, 
75.042 3.869, 74.606 3.642, 74.154 3.448, 73.689 3.288, 73.214 3.163, 
72.730 3.072, 72.241 3.018, 71.750 3.000, 71.259 3.018, 70.770 3.072, 
70.286 3.163, 69.811 3.288, 69.346 3.448, 68.894 3.642, 68.458 3.869, 
68.039 4.127, 67.641 4.416, 67.265 4.733, 66.914 5.077, 66.588 5.446, 
66.588 5.446, 64.298 8.523, 62.300 11.799, 60.612 15.244, 59.248 18.830, 
58.220 22.526, 57.536 26.301, 57.202 30.123, 57.221 33.959, 57.593 37.777, 
58.314 41.546, 59.379 45.231, 60.779 48.803, 62.501 52.232, 64.531 55.487, 
66.852 58.542, 69.444 61.370, 72.285 63.948, 75.351 66.254, 78.617 68.268, 
82.053 69.973, 85.632 71.355, 89.323 72.401, 93.095 73.104, 96.915 73.457, 
100.752 73.457, 104.572 73.104, 108.343 72.401, 112.034 71.355, 115.613 69.973, 
119.050 68.268, 122.315 66.254, 125.382 63.948, 128.223 61.370, 130.815 58.542, 
133.136 55.487, 135.166 52.232, 136.888 48.803, 138.288 45.231, 139.353 41.546, 
140.074 37.777, 140.446 33.959, 140.465 30.123, 140.131 26.301, 139.447 22.526, 
138.418 18.830, 137.055 15.244, 135.366 11.799, 133.369 8.523, 131.078 5.446, 
131.078 5.446, 130.753 5.077, 130.401 4.733, 130.026 4.416, 129.627 4.127, 
129.209 3.869, 128.772 3.642, 128.321 3.448, 127.856 3.288, 127.380 3.163, 
126.897 3.072, 126.408 3.018, 125.917 3.000, 125.425 3.018, 124.937 3.072, 
124.453 3.163, 123.978 3.288, 123.513 3.448, 123.061 3.642, 122.625 3.869, 
122.206 4.127, 121.808 4.416, 121.432 4.733, 121.080 5.077, 120.755 5.446, 
120.755 5.446, 118.465 8.523, 116.467 11.799, 114.779 15.244, 113.415 18.830, 
112.386 22.526, 111.702 26.301, 111.369 30.123, 111.388 33.959, 111.759 37.777, 
112.481 41.546, 113.546 45.231, 114.945 48.803, 116.667 52.232, 118.697 55.487, 
121.018 58.542, 123.610 61.370, 126.452 63.948, 129.518 66.254, 132.783 68.268, 
136.220 69.973, 139.799 71.355, 143.490 72.401, 147.262 73.104, 151.082 73.457, 
154.918 73.457, 158.738 73.104, 162.510 72.401, 166.201 71.355, 169.780 69.973, 
173.217 68.268, 176.482 66.254, 179.548 63.948, 182.390 61.370, 184.982 58.542, 
187.303 55.487, 189.333 52.232, 191.055 48.803, 192.454 45.231, 193.519 41.546, 
194.241 37.777, 194.612 33.959, 194.631 30.123, 194.298 26.301, 193.614 22.526, 
192.585 18.830, 191.221 15.244, 189.533 11.799, 187.535 8.523, 185.245 5.446, 
185.245 5.446, 184.920 5.077, 184.568 4.733, 184.192 4.416, 183.794 4.127, 
183.375 3.869, 182.939 3.642, 182.487 3.448, 182.022 3.288, 181.547 3.163, 
181.063 3.072, 180.575 3.018, 180.083 3.000, 179.592 3.018, 179.103 3.072, 
178.620 3.163, 178.144 3.288, 177.679 3.448, 177.228 3.642, 176.791 3.869, 
176.373 4.127, 175.974 4.416, 175.599 4.733, 175.247 5.077, 174.922 5.446, 
174.922 5.446, 172.631 8.523, 170.634 11.799, 168.945 15.244, 167.582 18.830, 
166.553 22.526, 165.869 26.301, 165.535 30.123, 165.554 33.959, 165.926 37.777, 
166.647 41.546, 167.712 45.231, 169.112 48.803, 170.834 52.232, 172.864 55.487, 
175.185 58.542, 177.777 61.370, 180.618 63.948, 183.685 66.254, 186.950 68.268, 
190.387 69.973, 193.966 71.355, 197.657 72.401, 201.428 73.104, 205.248 73.457, 
209.085 73.457, 212.905 73.104, 216.677 72.401, 220.368 71.355, 223.947 69.973, 
227.383 68.268, 230.649 66.254, 233.715 63.948, 236.556 61.370, 239.148 58.542, 
241.469 55.487, 243.499 52.232, 245.221 48.803, 246.621 45.231, 247.686 41.546, 
248.407 37.777, 248.779 33.959, 248.798 30.123, 248.464 26.301, 247.780 22.526, 
246.752 18.830, 245.388 15.244, 243.700 11.799, 241.702 8.523, 239.412 5.446, 
239.412 5.446, 239.086 5.077, 238.735 4.733, 238.359 4.416, 237.961 4.127, 
237.542 3.869, 237.106 3.642, 236.654 3.448, 236.189 3.288, 235.714 3.163, 
235.230 3.072, 234.741 3.018, 234.250 3.000, 233.759 3.018, 233.270 3.072, 
232.786 3.163, 232.311 3.288, 231.846 3.448, 231.394 3.642, 230.958 3.869, 
230.539 4.127, 230.141 4.416, 229.765 4.733, 229.414 5.077, 229.088 5.446, 
229.088 5.446, 227.128 8.042, 225.375 10.784, 223.842 13.654, 222.538 16.635, 
221.470 19.708, 220.646 22.856, 220.069 26.058, 219.744 29.296, 219.673 32.549, 
219.856 35.798, 220.291 39.022, 220.977 42.203, 221.909 45.320, 223.082 48.355, 
224.488 51.290, 226.118 54.106, 227.963 56.786, 230.012 59.313, 232.252 61.674, 
234.669 63.852, 237.249 65.835, 239.975 67.611, 242.832 69.168, 245.802 70.498, 
248.866 71.592, 252.006 72.444, 255.204 73.048, 258.438 73.400, 261.691 73.500, 
264.941 73.345, 268.169 72.937, 271.355 72.278, 274.481 71.373, 277.526 70.226, 
280.472 68.846, 283.302 67.239, 285.997 65.417, 288.543 63.390, 290.922 61.171, 
293.121 58.772, 295.126 56.210, 296.925 53.499, 298.507 50.655, 299.862 47.697, 
300.983 44.642, 301.861 41.509, 302.493 38.317, 302.873 35.086, 303.000 31.835, 
"
 style="fill:none;stroke:rgb(0,0,255);stroke-width:0.417" />
</svg>