<svg version="1.1"
width="532" height="400"
xmlns="http://www.w3.org/2000/svg">
<polyline points="
3.000 41.446, 3.169 45.781, 3.677 50.090, 4.518 54.346, 5.690 58.523, 
7.183 62.596, 8.990 66.540, 11.100 70.331, 13.498 73.946, 16.172 77.363, 
19.104 80.561, 22.276 83.520, 25.670 86.223, 29.264 88.652, 33.037 90.794, 
36.966 92.635, 41.026 94.164, 45.193 95.371, 49.442 96.249, 53.746 96.793, 
58.079 97.000, 62.416 96.867, 66.729 96.397, 70.992 95.592, 75.179 94.456, 
79.265 92.998, 83.224 91.224, 87.033 89.148, 90.669 86.780, 94.108 84.136, 
97.331 81.232, 100.317 78.085, 103.049 74.714, 105.509 71.141, 107.683 67.386, 
109.557 63.474, 111.121 59.427, 112.364 55.270, 113.278 51.029, 113.859 46.730, 
114.103 42.399, 114.008 38.061, 113.575 33.744, 112.806 29.475, 111.706 25.278, 
110.283 21.180, 108.544 17.205, 106.500 13.378, 104.163 9.723, 101.549 6.261, 
101.549 6.261, 101.115 5.769, 100.646 5.311, 100.145 4.888, 99.614 4.503, 
99.056 4.159, 98.474 3.856, 97.872 3.598, 97.252 3.384, 96.618 3.217, 
95.974 3.097, 95.322 3.024, 94.667 3.000, 94.011 3.024, 93.360 3.097, 
92.715 3.217, 92.081 3.384, 91.461 3.598, 90.859 3.856, 90.277 4.159, 
89.719 4.503, 89.188 4.888, 88.687 5.311, 88.218 5.769, 87.785 6.261, 
87.785 6.261, 84.731 10.364, 82.067 14.731, 79.816 19.325, 77.998 24.106, 
76.626 29.034, 75.714 34.068, 75.269 39.163, 75.294 44.279, 75.790 49.370, 
76.752 54.394, 78.172 59.308, 80.038 64.071, 82.334 68.642, 85.041 72.983, 
88.135 77.056, 91.592 80.827, 95.380 84.264, 99.468 87.339, 103.822 90.024, 
108.404 92.297, 113.176 94.140, 118.098 95.535, 123.126 96.472, 128.220 96.943, 
133.335 96.943, 138.429 96.472, 143.458 95.535, 148.379 94.140, 153.151 92.297, 
157.733 90.024, 162.087 87.339, 166.176 84.264, 169.964 80.827, 173.420 77.056, 
176.515 72.983, 179.221 68.642, 181.518 64.071, 183.383 59.308, 184.803 54.394, 
185.765 49.370, 186.261 44.279, 186.286 39.163, 185.841 34.068, 184.929 29.034, 
183.558 24.106, 181.739 19.325, 179.489 14.731, 176.825 10.364, 173.771 6.261, 
173.771 6.261, 173.337 5.769, 172.869 5.311, 172.367 4.888, 171.836 4.503, 
171.278 4.159, 170.697 3.856, 170.094 3.598, 169.474 3.384, 168.840 3.217, 
168.196 3.097, 167.544 3.024, 166.889 3.000, 166.234 3.024, 165.582 3.097, 
164.937 3.217, 164.303 3.384, 163.684 3.598, 163.081 3.856, 162.499 4.159, 
161.941 4.503, 161.410 4.888, 160.909 5.311, 160.440 5.769, 160.007 6.261, 
160.007 6.261, 156.953 10.364, 154.289 14.731, 152.038 19.325, 150.220 24.106, 
148.849 29.034, 147.937 34.068, 147.491 39.163, 147.517 44.279, 148.012 49.370, 
148.974 54.394, 150.394 59.308, 152.260 64.071, 154.556 68.642, 157.263 72.983, 
160.358 77.056, 163.814 80.827, 167.602 84.264, 171.690 87.339, 176.044 90.024, 
180.627 92.297, 185.399 94.140, 190.320 95.535, 195.349 96.472, 200.442 96.943, 
205.558 96.943, 210.651 96.472, 215.680 95.535, 220.601 94.140, 225.373 92.297, 
229.956 90.024, 234.310 87.339, 238.398 84.264, 242.186 80.827, 245.642 77.056, 
248.737 72.983, 251.444 68.642, 253.740 64.071, 255.606 59.308, 257.026 54.394, 
257.988 49.370, 258.483 44.279, 258.509 39.163, 258.063 34.068, 257.151 29.034, 
255.780 24.106, 253.962 19.325, 251.711 14.731, 249.047 10.364, 245.993 6.261, 
245.993 6.261, 245.560 5.769, 245.091 5.311, 244.590 4.888, 244.059 4.503, 
243.501 4.159, 242.919 3.856, 242.316 3.598, 241.697 3.384, 241.063 3.217, 
240.418 3.097, 239.766 3.024, 239.111 3.000, 238.456 3.024, 237.804 3.097, 
237.160 3.217, 236.526 3.384, 235.906 3.598, 235.303 3.856, 234.722 4.159, 
234.164 4.503, 233.633 4.888, 233.131 5.311, 232.663 5.769, 232.229 6.261, 
232.229 6.261, 229.175 10.364, 226.511 14.731, 224.261 19.325, 222.442 24.106, 
221.071 29.034, 220.159 34.068, 219.714 39.163, 219.739 44.279, 220.235 49.370, 
221.197 54.394, 222.617 59.308, 224.482 64.071, 226.779 68.642, 229.485 72.983, 
232.580 77.056, 236.036 80.827, 239.824 84.264, 243.913 87.339, 248.267 90.024, 
252.849 92.297, 257.621 94.140, 262.542 95.535, 267.571 96.472, 272.665 96.943, 
277.780 96.943, 282.874 96.472, 287.902 95.535, 292.824 94.140, 297.596 92.297, 
302.178 90.024, 306.532 87.339, 310.620 84.264, 314.408 80.827, 317.865 77.056, 
320.959 72.983, 323.666 68.642, 325.962 64.071, 327.828 59.308, 329.248 54.394, 
330.210 49.370, 330.706 44.279, 330.731 39.163, 330.286 34.068, 329.374 29.034, 
328.002 24.106, 326.184 19.325, 323.933 14.731, 321.269 10.364, 318.215 6.261, 
318.215 6.261, 317.782 5.769, 317.313 5.311, 316.812 4.888, 316.281 4.503, 
315.723 4.159, 315.141 3.856, 314.539 3.598, 313.919 3.384, 313.285 3.217, 
312.640 3.097, 311.989 3.024, 311.333 3.000, 310.678 3.024, 310.026 3.097, 
309.382 3.217, 308.748 3.384, 308.128 3.598, 307.526 3.856, 306.944 4.159, 
306.386 4.503, 305.855 4.888, 305.354 5.311, 304.885 5.769, 304.451 6.261, 
304.451 6.261, 301.837 9.723, 299.500 13.378, 297.456 17.205, 295.717 21.180, 
294.294 25.278, 293.194 29.475, 292.425 33.744, 291.992 38.061, 291.897 42.399, 
292.141 46.730, 292.722 51.029, 293.636 55.270, 294.879 59.427, 296.443 63.474, 
298.317 67.386, 300.491 71.141, 302.951 74.714, 305.683 78.085, 308.669 81.232, 
311.892 84.136, 315.331 86.780, 318.967 89.148, 322.776 91.224, 326.735 92.998, 
330.821 94.456, 335.008 95.592, 339.271 96.397, 343.584 96.867, 347.921 97.000, 
352.254 96.793, 356.558 96.249, 360.807 95.371, 364.974 94.164, 369.034 92.635, 
372.963 90.794, 376.736 88.652, 380.330 86.223, 383.724 83.520, 386.896 80.561, 
389.828 77.363, 392.502 73.946, 394.900 70.331, 397.010 66.540, 398.817 62.596, 
400.310 58.523, 401.482 54.346, 402.323 50.090, 402.831 45.781, 403.000 41.446, 
"
 style="fill:none;stroke:rgb(0,0,255);stroke-width:0.278" />
</svg>