<svg version="1.1"
width="399" height="300"
xmlns="http://www.w3.org/2000/svg">
<polyline points="
3.000 40.771, 3.105 46.680, 3.419 52.559, 3.941 58.380, 4.668 64.111, 
5.596 69.725, 6.721 75.193, 8.037 80.488, 9.537 85.583, 11.214 90.452, 
13.060 95.071, 15.065 99.417, 17.219 103.468, 19.511 107.202, 21.929 110.603, 
24.463 113.652, 27.097 116.334, 29.821 118.635, 32.619 120.544, 35.477 122.052, 
38.382 123.151, 41.319 123.835, 44.273 124.100, 47.228 123.947, 50.171 123.374, 
53.085 122.385, 55.958 120.986, 58.773 119.183, 61.518 116.985, 64.178 114.403, 
66.739 111.451, 69.190 108.142, 71.517 104.495, 73.708 100.527, 75.754 96.257, 
77.643 91.709, 79.366 86.904, 80.914 81.867, 82.280 76.623, 83.457 71.198, 
84.438 65.620, 85.219 59.917, 85.795 54.118, 86.165 48.252, 86.326 42.347, 
86.277 36.435, 86.018 30.545, 85.552 24.706, 84.879 18.948, 84.004 13.300, 
84.004 13.300, 83.673 11.890, 83.179 10.529, 82.531 9.233, 81.737 8.022, 
80.807 6.912, 79.754 5.917, 78.593 5.051, 77.339 4.326, 76.010 3.752, 
74.622 3.336, 73.196 3.084, 71.750 3.000, 70.304 3.084, 68.878 3.336, 
67.490 3.752, 66.161 4.326, 64.907 5.051, 63.746 5.917, 62.693 6.912, 
61.763 8.022, 60.969 9.233, 60.321 10.529, 59.827 11.890, 59.496 13.300, 
59.496 13.300, 58.547 19.500, 57.842 25.829, 57.385 32.248, 57.179 38.719, 
57.226 45.202, 57.524 51.658, 58.072 58.049, 58.867 64.335, 59.904 70.478, 
61.177 76.441, 62.677 82.188, 64.397 87.685, 66.325 92.898, 68.450 97.795, 
70.758 102.347, 73.237 106.526, 75.870 110.307, 78.643 113.667, 81.538 116.586, 
84.538 119.046, 87.624 121.032, 90.778 122.532, 93.980 123.537, 97.212 124.041, 
100.454 124.041, 103.686 123.537, 106.889 122.532, 110.043 121.032, 113.129 119.046, 
116.129 116.586, 119.024 113.667, 121.796 110.307, 124.430 106.526, 126.908 102.347, 
129.217 97.795, 131.342 92.898, 133.270 87.685, 134.989 82.188, 136.490 76.441, 
137.763 70.478, 138.800 64.335, 139.595 58.049, 140.143 51.658, 140.441 45.202, 
140.487 38.719, 140.282 32.248, 139.825 25.829, 139.120 19.500, 138.171 13.300, 
138.171 13.300, 137.839 11.890, 137.346 10.529, 136.698 9.233, 135.903 8.022, 
134.973 6.912, 133.921 5.917, 132.760 5.051, 131.506 4.326, 130.176 3.752, 
128.789 3.336, 127.363 3.084, 125.917 3.000, 124.471 3.084, 123.044 3.336, 
121.657 3.752, 120.327 4.326, 119.074 5.051, 117.913 5.917, 116.860 6.912, 
115.930 8.022, 115.136 9.233, 114.487 10.529, 113.994 11.890, 113.662 13.300, 
113.662 13.300, 112.714 19.500, 112.009 25.829, 111.552 32.248, 111.346 38.719, 
111.392 45.202, 111.690 51.658, 112.239 58.049, 113.034 64.335, 114.071 70.478, 
115.343 76.441, 116.844 82.188, 118.563 87.685, 120.491 92.898, 122.616 97.795, 
124.925 102.347, 127.404 106.526, 130.037 110.307, 132.810 113.667, 135.705 116.586, 
138.704 119.046, 141.790 121.032, 144.944 122.532, 148.147 123.537, 151.379 124.041, 
154.621 124.041, 157.853 123.537, 161.056 122.532, 164.210 121.032, 167.296 119.046, 
170.295 116.586, 173.190 113.667, 175.963 110.307, 178.596 106.526, 181.075 102.347, 
183.384 97.795, 185.509 92.898, 187.437 87.685, 189.156 82.188, 190.657 76.441, 
191.929 70.478, 192.966 64.335, 193.761 58.049, 194.310 51.658, 194.608 45.202, 
194.654 38.719, 194.448 32.248, 193.991 25.829, 193.286 19.500, 192.338 13.300, 
192.338 13.300, 192.006 11.890, 191.513 10.529, 190.864 9.233, 190.070 8.022, 
189.140 6.912, 188.087 5.917, 186.926 5.051, 185.673 4.326, 184.343 3.752, 
182.956 3.336, 181.529 3.084, 180.083 3.000, 178.637 3.084, 177.211 3.336, 
175.824 3.752, 174.494 4.326, 173.240 5.051, 172.079 5.917, 171.027 6.912, 
170.097 8.022, 169.302 9.233, 168.654 10.529, 168.161 11.890, 167.829 13.300, 
167.829 13.300, 166.880 19.500, 166.175 25.829, 165.718 32.248, 165.513 38.719, 
165.559 45.202, 165.857 51.658, 166.405 58.049, 167.200 64.335, 168.237 70.478, 
169.510 76.441, 171.011 82.188, 172.730 87.685, 174.658 92.898, 176.783 97.795, 
179.092 102.347, 181.570 106.526, 184.204 110.307, 186.976 113.667, 189.871 116.586, 
192.871 119.046, 195.957 121.032, 199.111 122.532, 202.314 123.537, 205.546 124.041, 
208.788 124.041, 212.020 123.537, 215.222 122.532, 218.376 121.032, 221.462 119.046, 
224.462 116.586, 227.357 113.667, 230.130 110.307, 232.763 106.526, 235.242 102.347, 
237.550 97.795, 239.675 92.898, 241.603 87.685, 243.323 82.188, 244.823 76.441, 
246.096 70.478, 247.133 64.335, 247.928 58.049, 248.476 51.658, 248.774 45.202, 
248.821 38.719, 248.615 32.248, 248.158 25.829, 247.453 19.500, 246.504 13.300, 
246.504 13.300, 246.173 11.890, 245.679 10.529, 245.031 9.233, 244.237 8.022, 
243.307 6.912, 242.254 5.917, 241.093 5.051, 239.839 4.326, 238.510 3.752, 
237.122 3.336, 235.696 3.084, 234.250 3.000, 232.804 3.084, 231.378 3.336, 
229.990 3.752, 228.661 4.326, 227.407 5.051, 226.246 5.917, 225.193 6.912, 
224.263 8.022, 223.469 9.233, 222.821 10.529, 222.327 11.890, 221.996 13.300, 
221.996 13.300, 221.121 18.948, 220.448 24.706, 219.982 30.545, 219.723 36.435, 
219.674 42.347, 219.835 48.252, 220.205 54.118, 220.781 59.917, 221.562 65.620, 
222.543 71.198, 223.720 76.623, 225.086 81.867, 226.634 86.904, 228.357 91.709, 
230.246 96.257, 232.292 100.527, 234.483 104.495, 236.810 108.142, 239.261 111.451, 
241.822 114.403, 244.482 116.985, 247.227 119.183, 250.042 120.986, 252.915 122.385, 
255.829 123.374, 258.772 123.947, 261.727 124.100, 264.681 123.835, 267.618 123.151, 
270.523 122.052, 273.381 120.544, 276.179 118.635, 278.903 116.334, 281.537 113.652, 
284.071 110.603, 286.489 107.202, 288.781 103.468, 290.935 99.417, 292.940 95.071, 
294.786 90.452, 296.463 85.583, 297.963 80.488, 299.279 75.193, 300.404 69.725, 
301.332 64.111, 302.059 58.380, 302.581 52.559, 302.895 46.680, 303.000 40.771, 
"
 style="fill:none;stroke:rgb(0,0,255);stroke-width:0.417" />
</svg>