<svg version="1.1"
width="399" height="300"
xmlns="http://www.w3.org/2000/svg">
<polyline points="
3.000 86.330, 3.105 80.420, 3.419 74.541, 3.941 68.721, 4.668 62.989, 
5.596 57.376, 6.721 51.907, 8.037 46.613, 9.537 41.518, 11.214 36.648, 
13.060 32.029, 15.065 27.683, 17.219 23.633, 19.511 19.898, 21.929 16.498, 
24.463 13.449, 27.097 10.767, 29.821 8.465, 32.619 6.556, 35.477 5.048, 
38.382 3.950, 41.319 3.266, 44.273 3.000, 47.228 3.154, 50.171 3.726, 
53.085 4.715, 55.958 6.114, 58.773 7.918, 61.518 10.116, 64.178 12.697, 
66.739 15.650, 69.190 18.958, 71.517 22.606, 73.708 26.574, 75.754 30.843, 
77.643 35.392, 79.366 40.196, 80.914 45.234, 82.280 50.478, 83.457 55.902, 
84.438 61.480, 85.219 67.183, 85.795 72.982, 86.165 78.849, 86.326 84.753, 
86.277 90.665, 86.018 96.555, 85.552 102.394, 84.879 108.152, 84.004 113.800, 
84.004 113.800, 83.673 115.210, 83.179 116.572, 82.531 117.867, 81.737 119.078, 
80.807 120.188, 79.754 121.183, 78.593 122.049, 77.339 122.774, 76.010 123.348, 
74.622 123.764, 73.196 124.016, 71.750 124.100, 70.304 124.016, 68.878 123.764, 
67.490 123.348, 66.161 122.774, 64.907 122.049, 63.746 121.183, 62.693 120.188, 
61.763 119.078, 60.969 117.867, 60.321 116.572, 59.827 115.210, 59.496 113.800, 
59.496 113.800, 58.547 107.600, 57.842 101.272, 57.385 94.852, 57.179 88.382, 
57.226 81.899, 57.524 75.442, 58.072 69.052, 58.867 62.766, 59.904 56.623, 
61.177 50.659, 62.677 44.912, 64.397 39.415, 66.325 34.203, 68.450 29.306, 
70.758 24.754, 73.237 20.575, 75.870 16.793, 78.643 13.433, 81.538 10.515, 
84.538 8.055, 87.624 6.069, 90.778 4.569, 93.980 3.563, 97.212 3.059, 
100.454 3.059, 103.686 3.563, 106.889 4.569, 110.043 6.069, 113.129 8.055, 
116.129 10.515, 119.024 13.433, 121.796 16.793, 124.430 20.575, 126.908 24.754, 
129.217 29.306, 131.342 34.203, 133.270 39.415, 134.989 44.912, 136.490 50.659, 
137.763 56.623, 138.800 62.766, 139.595 69.052, 140.143 75.442, 140.441 81.899, 
140.487 88.382, 140.282 94.852, 139.825 101.272, 139.120 107.600, 138.171 113.800, 
138.171 113.800, 137.839 115.210, 137.346 116.572, 136.698 117.867, 135.903 119.078, 
134.973 120.188, 133.921 121.183, 132.760 122.049, 131.506 122.774, 130.176 123.348, 
128.789 123.764, 127.363 124.016, 125.917 124.100, 124.471 124.016, 123.044 123.764, 
121.657 123.348, 120.327 122.774, 119.074 122.049, 117.913 121.183, 116.860 120.188, 
115.930 119.078, 115.136 117.867, 114.487 116.572, 113.994 115.210, 113.662 113.800, 
113.662 113.800, 112.714 107.600, 112.009 101.272, 111.552 94.852, 111.346 88.382, 
111.392 81.899, 111.690 75.442, 112.239 69.052, 113.034 62.766, 114.071 56.623, 
115.343 50.659, 116.844 44.912, 118.563 39.415, 120.491 34.203, 122.616 29.306, 
124.925 24.754, 127.404 20.575, 130.037 16.793, 132.810 13.433, 135.705 10.515, 
138.704 8.055, 141.790 6.069, 144.944 4.569, 148.147 3.563, 151.379 3.059, 
154.621 3.059, 157.853 3.563, 161.056 4.569, 164.210 6.069, 167.296 8.055, 
170.295 10.515, 173.190 13.433, 175.963 16.793, 178.596 20.575, 181.075 24.754, 
183.384 29.306, 185.509 34.203, 187.437 39.415, 189.156 44.912, 190.657 50.659, 
191.929 56.623, 192.966 62.766, 193.761 69.052, 194.310 75.442, 194.608 81.899, 
194.654 88.382, 194.448 94.852, 193.991 101.272, 193.286 107.600, 192.338 113.800, 
192.338 113.800, 192.006 115.210, 191.513 116.572, 190.864 117.867, 190.070 119.078, 
189.140 120.188, 188.087 121.183, 186.926 122.049, 185.673 122.774, 184.343 123.348, 
182.956 123.764, 181.529 124.016, 180.083 124.100, 178.637 124.016, 177.211 123.764, 
175.824 123.348, 174.494 122.774, 173.240 122.049, 172.079 121.183, 171.027 120.188, 
170.097 119.078, 169.302 117.867, 168.654 116.572, 168.161 115.210, 167.829 113.800, 
167.829 113.800, 166.880 107.600, 166.175 101.272, 165.718 94.852, 165.513 88.382, 
165.559 81.899, 165.857 75.442, 166.405 69.052, 167.200 62.766, 168.237 56.623, 
169.510 50.659, 171.011 44.912, 172.730 39.415, 174.658 34.203, 176.783 29.306, 
179.092 24.754, 181.570 20.575, 184.204 16.793, 186.976 13.433, 189.871 10.515, 
192.871 8.055, 195.957 6.069, 199.111 4.569, 202.314 3.563, 205.546 3.059, 
208.788 3.059, 212.020 3.563, 215.222 4.569, 218.376 6.069, 221.462 8.055, 
224.462 10.515, 227.357 13.433, 230.130 16.793, 232.763 20.575, 235.242 24.754, 
237.550 29.306, 239.675 34.203, 241.603 39.415, 243.323 44.912, 244.823 50.659, 
246.096 56.623, 247.133 62.766, 247.928 69.052, 248.476 75.442, 248.774 81.899, 
248.821 88.382, 248.615 94.852, 248.158 101.272, 247.453 107.600, 246.504 113.800, 
246.504 113.800, 246.173 115.210, 245.679 116.572, 245.031 117.867, 244.237 119.078, 
243.307 120.188, 242.254 121.183, 241.093 122.049, 239.839 122.774, 238.510 123.348, 
237.122 123.764, 235.696 124.016, 234.250 124.100, 232.804 124.016, 231.378 123.764, 
229.990 123.348, 228.661 122.774, 227.407 122.049, 226.246 121.183, 225.193 120.188, 
224.263 119.078, 223.469 117.867, 222.821 116.572, 222.327 115.210, 221.996 113.800, 
221.996 113.800, 221.121 108.152, 220.448 102.394, 219.982 96.555, 219.723 90.665, 
219.674 84.753, 219.835 78.849, 220.205 72.982, 220.781 67.183, 221.562 61.480, 
222.543 55.902, 223.720 50.478, 225.086 45.234, 226.634 40.196, 228.357 35.392, 
230.246 30.843, 232.292 26.574, 234.483 22.606, 236.810 18.958, 239.261 15.650, 
241.822 12.697, 244.482 10.116, 247.227 7.918, 250.042 6.114, 252.915 4.715, 
255.829 3.726, 258.772 3.154, 261.727 3.000, 264.681 3.266, 267.618 3.950, 
270.523 5.048, 273.381 6.556, 276.179 8.465, 278.903 10.767, 281.537 13.449, 
284.071 16.498, 286.489 19.898, 288.781 23.633, 290.935 27.683, 292.940 32.029, 
294.786 36.648, 296.463 41.518, 297.963 46.613, 299.279 51.907, 300.404 57.376, 
301.332 62.989, 302.059 68.721, 302.581 74.541, 302.895 80.420, 303.000 86.330, 
"
 style="fill:none;stroke:rgb(0,0,255);stroke-width:0.417" />
</svg>