<svg version="1.1"
width="532" height="400"
xmlns="http://www.w3.org/2000/svg">
<polyline points="
3.000 114.106, 3.140 106.227, 3.559 98.388, 4.254 90.628, 5.224 82.986, 
6.461 75.501, 7.961 68.210, 9.716 61.150, 11.716 54.357, 13.953 47.864, 
16.413 41.706, 19.086 35.911, 21.958 30.511, 25.014 25.531, 28.239 20.997, 
31.617 16.932, 35.130 13.356, 38.761 10.287, 42.492 7.741, 46.303 5.731, 
50.177 4.266, 54.092 3.354, 58.030 3.000, 61.971 3.205, 65.894 3.969, 
69.781 5.287, 73.610 7.153, 77.365 9.557, 81.024 12.488, 84.570 15.930, 
87.986 19.866, 91.253 24.277, 94.356 29.141, 97.278 34.432, 100.005 40.124, 
102.524 46.189, 104.821 52.595, 106.886 59.312, 108.707 66.304, 110.275 73.537, 
111.584 80.974, 112.625 88.577, 113.394 96.310, 113.887 104.132, 114.101 112.004, 
114.036 119.887, 113.691 127.741, 113.069 135.526, 112.172 143.203, 111.006 150.734, 
111.006 150.734, 110.563 152.613, 109.906 154.429, 109.041 156.156, 107.982 157.771, 
106.742 159.251, 105.339 160.578, 103.791 161.732, 102.119 162.699, 100.346 163.465, 
98.496 164.019, 96.595 164.355, 94.667 164.467, 92.739 164.355, 90.837 164.019, 
88.987 163.465, 87.214 162.699, 85.543 161.732, 83.994 160.578, 82.591 159.251, 
81.351 157.771, 80.292 156.156, 79.428 154.429, 78.770 152.613, 78.328 150.734, 
78.328 150.734, 77.062 142.467, 76.123 134.029, 75.514 125.470, 75.239 116.842, 
75.301 108.198, 75.698 99.590, 76.429 91.069, 77.489 82.688, 78.872 74.497, 
80.569 66.546, 82.570 58.883, 84.862 51.554, 87.433 44.604, 90.266 38.074, 
93.344 32.005, 96.649 26.433, 100.161 21.391, 103.857 16.911, 107.717 13.019, 
111.717 9.740, 115.831 7.092, 120.037 5.091, 124.307 3.751, 128.617 3.079, 
132.939 3.079, 137.249 3.751, 141.519 5.091, 145.724 7.092, 149.839 9.740, 
153.838 13.019, 157.698 16.911, 161.395 21.391, 164.906 26.433, 168.211 32.005, 
171.290 38.074, 174.123 44.604, 176.693 51.554, 178.986 58.883, 180.987 66.546, 
182.683 74.497, 184.066 82.688, 185.126 91.069, 185.857 99.590, 186.255 108.198, 
186.316 116.842, 186.042 125.470, 185.433 134.029, 184.493 142.467, 183.228 150.734, 
183.228 150.734, 182.786 152.613, 182.128 154.429, 181.264 156.156, 180.204 157.771, 
178.965 159.251, 177.561 160.578, 176.013 161.732, 174.341 162.699, 172.568 163.465, 
170.718 164.019, 168.817 164.355, 166.889 164.467, 164.961 164.355, 163.059 164.019, 
161.209 163.465, 159.437 162.699, 157.765 161.732, 156.217 160.578, 154.813 159.251, 
153.574 157.771, 152.514 156.156, 151.650 154.429, 150.992 152.613, 150.550 150.734, 
150.550 150.734, 149.285 142.467, 148.345 134.029, 147.736 125.470, 147.461 116.842, 
147.523 108.198, 147.921 99.590, 148.652 91.069, 149.712 82.688, 151.094 74.497, 
152.791 66.546, 154.792 58.883, 157.085 51.554, 159.655 44.604, 162.488 38.074, 
165.567 32.005, 168.871 26.433, 172.383 21.391, 176.080 16.911, 179.940 13.019, 
183.939 9.740, 188.054 7.092, 192.259 5.091, 196.529 3.751, 200.839 3.079, 
205.161 3.079, 209.471 3.751, 213.741 5.091, 217.946 7.092, 222.061 9.740, 
226.060 13.019, 229.920 16.911, 233.617 21.391, 237.129 26.433, 240.433 32.005, 
243.512 38.074, 246.345 44.604, 248.915 51.554, 251.208 58.883, 253.209 66.546, 
254.906 74.497, 256.288 82.688, 257.348 91.069, 258.079 99.590, 258.477 108.198, 
258.539 116.842, 258.264 125.470, 257.655 134.029, 256.715 142.467, 255.450 150.734, 
255.450 150.734, 255.008 152.613, 254.350 154.429, 253.486 156.156, 252.426 157.771, 
251.187 159.251, 249.783 160.578, 248.235 161.732, 246.563 162.699, 244.791 163.465, 
242.941 164.019, 241.039 164.355, 239.111 164.467, 237.183 164.355, 235.282 164.019, 
233.432 163.465, 231.659 162.699, 229.987 161.732, 228.439 160.578, 227.035 159.251, 
225.796 157.771, 224.736 156.156, 223.872 154.429, 223.214 152.613, 222.772 150.734, 
222.772 150.734, 221.507 142.467, 220.567 134.029, 219.958 125.470, 219.684 116.842, 
219.745 108.198, 220.143 99.590, 220.874 91.069, 221.934 82.688, 223.317 74.497, 
225.013 66.546, 227.014 58.883, 229.307 51.554, 231.877 44.604, 234.710 38.074, 
237.789 32.005, 241.094 26.433, 244.605 21.391, 248.302 16.911, 252.162 13.019, 
256.161 9.740, 260.276 7.092, 264.481 5.091, 268.751 3.751, 273.061 3.079, 
277.383 3.079, 281.693 3.751, 285.963 5.091, 290.169 7.092, 294.283 9.740, 
298.283 13.019, 302.143 16.911, 305.839 21.391, 309.351 26.433, 312.656 32.005, 
315.734 38.074, 318.567 44.604, 321.138 51.554, 323.430 58.883, 325.431 66.546, 
327.128 74.497, 328.511 82.688, 329.571 91.069, 330.302 99.590, 330.699 108.198, 
330.761 116.842, 330.486 125.470, 329.877 134.029, 328.938 142.467, 327.672 150.734, 
327.672 150.734, 327.230 152.613, 326.572 154.429, 325.708 156.156, 324.649 157.771, 
323.409 159.251, 322.006 160.578, 320.457 161.732, 318.786 162.699, 317.013 163.465, 
315.163 164.019, 313.261 164.355, 311.333 164.467, 309.405 164.355, 307.504 164.019, 
305.654 163.465, 303.881 162.699, 302.209 161.732, 300.661 160.578, 299.258 159.251, 
298.018 157.771, 296.959 156.156, 296.094 154.429, 295.437 152.613, 294.994 150.734, 
294.994 150.734, 293.828 143.203, 292.931 135.526, 292.309 127.741, 291.964 119.887, 
291.899 112.004, 292.113 104.132, 292.606 96.310, 293.375 88.577, 294.416 80.974, 
295.725 73.537, 297.293 66.304, 299.114 59.312, 301.179 52.595, 303.476 46.189, 
305.995 40.124, 308.722 34.432, 311.644 29.141, 314.747 24.277, 318.014 19.866, 
321.430 15.930, 324.976 12.488, 328.635 9.557, 332.390 7.153, 336.219 5.287, 
340.106 3.969, 344.029 3.205, 347.970 3.000, 351.908 3.354, 355.823 4.266, 
359.697 5.731, 363.508 7.741, 367.239 10.287, 370.870 13.356, 374.383 16.932, 
377.761 20.997, 380.986 25.531, 384.042 30.511, 386.914 35.911, 389.587 41.706, 
392.047 47.864, 394.284 54.357, 396.284 61.150, 398.039 68.210, 399.539 75.501, 
400.776 82.986, 401.746 90.628, 402.441 98.388, 402.860 106.227, 403.000 114.106, 
"
 style="fill:none;stroke:rgb(0,0,255);stroke-width:0.278" />
</svg>