<?xml version="1.0" encoding="utf-8" standalone="no"?>
<!DOCTYPE svg PUBLIC "-//W3C//DTD SVG 1.1//EN"
  "http://www.w3.org/Graphics/SVG/1.1/DTD/svg11.dtd">
<svg xmlns:xlink="http://www.w3.org/1999/xlink" width="1080pt" height="504pt" viewBox="0 0 1080 504" xmlns="http://www.w3.org/2000/svg" version="1.1">
 <metadata>
  <rdf:RDF xmlns:dc="http://purl.org/dc/elements/1.1/" xmlns:cc="http://creativecommons.org/ns#" xmlns:rdf="http://www.w3.org/1999/02/22-rdf-syntax-ns#">
   <cc:Work>
    <dc:type rdf:resource="http://purl.org/dc/dcmitype/StillImage"/>
    <dc:date>2026-02-10T15:45:11.148982</dc:date>
    <dc:format>image/svg+xml</dc:format>
    <dc:creator>
     <cc:Agent>
      <dc:title>Matplotlib v3.9.2, https://matplotlib.org/</dc:title>
     </cc:Agent>
    </dc:creator>
   </cc:Work>
  </rdf:RDF>
 </metadata>
 <defs>
  <style type="text/css">*{stroke-linejoin: round; stroke-linecap: butt}</style>
 </defs>
 <g id="figure_1">
  <g id="patch_1">
   <path d="M 0 504 
L 1080 504 
L 1080 0 
L 0 0 
z
" style="fill: #ffffff"/>
  </g>
  <g id="axes_1">
   <g id="patch_2">
    <path d="M 32.56 477.23542 
L 529.875 477.23542 
L 529.875 50.96458 
L 32.56 50.96458 
z
" style="fill: #ffffff"/>
   </g>
   <g id="patch_3">
    <path d="M 281.213935 352.860649 
C 287.62476 352.860649 293.773878 350.313601 298.307016 345.780463 
C 302.840154 341.247325 305.387201 335.098207 305.387201 328.687382 
C 305.387201 322.276557 302.840154 316.12744 298.307016 311.594302 
C 293.773878 307.061164 287.62476 304.514116 281.213935 304.514116 
C 274.80311 304.514116 268.653992 307.061164 264.120854 311.594302 
C 259.587716 316.12744 257.040668 322.276557 257.040668 328.687382 
C 257.040668 335.098207 259.587716 341.247325 264.120854 345.780463 
C 268.653992 350.313601 274.80311 352.860649 281.213935 352.860649 
L 281.213935 352.860649 
z
" clip-path="url(#pa36873cb11)" style="fill: none; stroke-dasharray: 7.4,3.2; stroke-dashoffset: 0; stroke: #0000ff; stroke-width: 2; stroke-linejoin: miter"/>
   </g>
   <g id="matplotlib.axis_1">
    <g id="xtick_1">
     <g id="line2d_1">
      <path d="M 55.158097 477.23542 
L 55.158097 50.96458 
" clip-path="url(#pa36873cb11)" style="fill: none; stroke: #b0b0b0; stroke-opacity: 0.3; stroke-width: 0.8; stroke-linecap: square"/>
     </g>
     <g id="line2d_2">
      <defs>
       <path id="m5f19b8b661" d="M 0 0 
L 0 3.5 
" style="stroke: #000000; stroke-width: 0.8"/>
      </defs>
      <g>
       <use xlink:href="#m5f19b8b661" x="55.158097" y="477.23542" style="stroke: #000000; stroke-width: 0.8"/>
      </g>
     </g>
     <g id="text_1">
      <!-- −2 -->
      <g transform="translate(47.787003 491.833858) scale(0.1 -0.1)">
       <defs>
        <path id="DejaVuSans-2212" d="M 678 2272 
L 4684 2272 
L 4684 1741 
L 678 1741 
L 678 2272 
z
" transform="scale(0.015625)"/>
        <path id="DejaVuSans-32" d="M 1228 531 
L 3431 531 
L 3431 0 
L 469 0 
L 469 531 
Q 828 903 1448 1529 
Q 2069 2156 2228 2338 
Q 2531 2678 2651 2914 
Q 2772 3150 2772 3378 
Q 2772 3750 2511 3984 
Q 2250 4219 1831 4219 
Q 1534 4219 1204 4116 
Q 875 4013 500 3803 
L 500 4441 
Q 881 4594 1212 4672 
Q 1544 4750 1819 4750 
Q 2544 4750 2975 4387 
Q 3406 4025 3406 3419 
Q 3406 3131 3298 2873 
Q 3191 2616 2906 2266 
Q 2828 2175 2409 1742 
Q 1991 1309 1228 531 
z
" transform="scale(0.015625)"/>
       </defs>
       <use xlink:href="#DejaVuSans-2212"/>
       <use xlink:href="#DejaVuSans-32" x="83.789062"/>
      </g>
     </g>
    </g>
    <g id="xtick_2">
     <g id="line2d_3">
      <path d="M 119.745479 477.23542 
L 119.745479 50.96458 
" clip-path="url(#pa36873cb11)" style="fill: none; stroke: #b0b0b0; stroke-opacity: 0.3; stroke-width: 0.8; stroke-linecap: square"/>
     </g>
     <g id="line2d_4">
      <g>
       <use xlink:href="#m5f19b8b661" x="119.745479" y="477.23542" style="stroke: #000000; stroke-width: 0.8"/>
      </g>
     </g>
     <g id="text_2">
      <!-- −1 -->
      <g transform="translate(112.374386 491.833858) scale(0.1 -0.1)">
       <defs>
        <path id="DejaVuSans-31" d="M 794 531 
L 1825 531 
L 1825 4091 
L 703 3866 
L 703 4441 
L 1819 4666 
L 2450 4666 
L 2450 531 
L 3481 531 
L 3481 0 
L 794 0 
L 794 531 
z
" transform="scale(0.015625)"/>
       </defs>
       <use xlink:href="#DejaVuSans-2212"/>
       <use xlink:href="#DejaVuSans-31" x="83.789062"/>
      </g>
     </g>
    </g>
    <g id="xtick_3">
     <g id="line2d_5">
      <path d="M 184.332862 477.23542 
L 184.332862 50.96458 
" clip-path="url(#pa36873cb11)" style="fill: none; stroke: #b0b0b0; stroke-opacity: 0.3; stroke-width: 0.8; stroke-linecap: square"/>
     </g>
     <g id="line2d_6">
      <g>
       <use xlink:href="#m5f19b8b661" x="184.332862" y="477.23542" style="stroke: #000000; stroke-width: 0.8"/>
      </g>
     </g>
     <g id="text_3">
      <!-- 0 -->
      <g transform="translate(181.151612 491.833858) scale(0.1 -0.1)">
       <defs>
        <path id="DejaVuSans-30" d="M 2034 4250 
Q 1547 4250 1301 3770 
Q 1056 3291 1056 2328 
Q 1056 1369 1301 889 
Q 1547 409 2034 409 
Q 2525 409 2770 889 
Q 3016 1369 3016 2328 
Q 3016 3291 2770 3770 
Q 2525 4250 2034 4250 
z
M 2034 4750 
Q 2819 4750 3233 4129 
Q 3647 3509 3647 2328 
Q 3647 1150 3233 529 
Q 2819 -91 2034 -91 
Q 1250 -91 836 529 
Q 422 1150 422 2328 
Q 422 3509 836 4129 
Q 1250 4750 2034 4750 
z
" transform="scale(0.015625)"/>
       </defs>
       <use xlink:href="#DejaVuSans-30"/>
      </g>
     </g>
    </g>
    <g id="xtick_4">
     <g id="line2d_7">
      <path d="M 248.920244 477.23542 
L 248.920244 50.96458 
" clip-path="url(#pa36873cb11)" style="fill: none; stroke: #b0b0b0; stroke-opacity: 0.3; stroke-width: 0.8; stroke-linecap: square"/>
     </g>
     <g id="line2d_8">
      <g>
       <use xlink:href="#m5f19b8b661" x="248.920244" y="477.23542" style="stroke: #000000; stroke-width: 0.8"/>
      </g>
     </g>
     <g id="text_4">
      <!-- 1 -->
      <g transform="translate(245.738994 491.833858) scale(0.1 -0.1)">
       <use xlink:href="#DejaVuSans-31"/>
      </g>
     </g>
    </g>
    <g id="xtick_5">
     <g id="line2d_9">
      <path d="M 313.507626 477.23542 
L 313.507626 50.96458 
" clip-path="url(#pa36873cb11)" style="fill: none; stroke: #b0b0b0; stroke-opacity: 0.3; stroke-width: 0.8; stroke-linecap: square"/>
     </g>
     <g id="line2d_10">
      <g>
       <use xlink:href="#m5f19b8b661" x="313.507626" y="477.23542" style="stroke: #000000; stroke-width: 0.8"/>
      </g>
     </g>
     <g id="text_5">
      <!-- 2 -->
      <g transform="translate(310.326376 491.833858) scale(0.1 -0.1)">
       <use xlink:href="#DejaVuSans-32"/>
      </g>
     </g>
    </g>
    <g id="xtick_6">
     <g id="line2d_11">
      <path d="M 378.095008 477.23542 
L 378.095008 50.96458 
" clip-path="url(#pa36873cb11)" style="fill: none; stroke: #b0b0b0; stroke-opacity: 0.3; stroke-width: 0.8; stroke-linecap: square"/>
     </g>
     <g id="line2d_12">
      <g>
       <use xlink:href="#m5f19b8b661" x="378.095008" y="477.23542" style="stroke: #000000; stroke-width: 0.8"/>
      </g>
     </g>
     <g id="text_6">
      <!-- 3 -->
      <g transform="translate(374.913758 491.833858) scale(0.1 -0.1)">
       <defs>
        <path id="DejaVuSans-33" d="M 2597 2516 
Q 3050 2419 3304 2112 
Q 3559 1806 3559 1356 
Q 3559 666 3084 287 
Q 2609 -91 1734 -91 
Q 1441 -91 1130 -33 
Q 819 25 488 141 
L 488 750 
Q 750 597 1062 519 
Q 1375 441 1716 441 
Q 2309 441 2620 675 
Q 2931 909 2931 1356 
Q 2931 1769 2642 2001 
Q 2353 2234 1838 2234 
L 1294 2234 
L 1294 2753 
L 1863 2753 
Q 2328 2753 2575 2939 
Q 2822 3125 2822 3475 
Q 2822 3834 2567 4026 
Q 2313 4219 1838 4219 
Q 1578 4219 1281 4162 
Q 984 4106 628 3988 
L 628 4550 
Q 988 4650 1302 4700 
Q 1616 4750 1894 4750 
Q 2613 4750 3031 4423 
Q 3450 4097 3450 3541 
Q 3450 3153 3228 2886 
Q 3006 2619 2597 2516 
z
" transform="scale(0.015625)"/>
       </defs>
       <use xlink:href="#DejaVuSans-33"/>
      </g>
     </g>
    </g>
    <g id="xtick_7">
     <g id="line2d_13">
      <path d="M 442.68239 477.23542 
L 442.68239 50.96458 
" clip-path="url(#pa36873cb11)" style="fill: none; stroke: #b0b0b0; stroke-opacity: 0.3; stroke-width: 0.8; stroke-linecap: square"/>
     </g>
     <g id="line2d_14">
      <g>
       <use xlink:href="#m5f19b8b661" x="442.68239" y="477.23542" style="stroke: #000000; stroke-width: 0.8"/>
      </g>
     </g>
     <g id="text_7">
      <!-- 4 -->
      <g transform="translate(439.50114 491.833858) scale(0.1 -0.1)">
       <defs>
        <path id="DejaVuSans-34" d="M 2419 4116 
L 825 1625 
L 2419 1625 
L 2419 4116 
z
M 2253 4666 
L 3047 4666 
L 3047 1625 
L 3713 1625 
L 3713 1100 
L 3047 1100 
L 3047 0 
L 2419 0 
L 2419 1100 
L 313 1100 
L 313 1709 
L 2253 4666 
z
" transform="scale(0.015625)"/>
       </defs>
       <use xlink:href="#DejaVuSans-34"/>
      </g>
     </g>
    </g>
    <g id="xtick_8">
     <g id="line2d_15">
      <path d="M 507.269773 477.23542 
L 507.269773 50.96458 
" clip-path="url(#pa36873cb11)" style="fill: none; stroke: #b0b0b0; stroke-opacity: 0.3; stroke-width: 0.8; stroke-linecap: square"/>
     </g>
     <g id="line2d_16">
      <g>
       <use xlink:href="#m5f19b8b661" x="507.269773" y="477.23542" style="stroke: #000000; stroke-width: 0.8"/>
      </g>
     </g>
     <g id="text_8">
      <!-- 5 -->
      <g transform="translate(504.088523 491.833858) scale(0.1 -0.1)">
       <defs>
        <path id="DejaVuSans-35" d="M 691 4666 
L 3169 4666 
L 3169 4134 
L 1269 4134 
L 1269 2991 
Q 1406 3038 1543 3061 
Q 1681 3084 1819 3084 
Q 2600 3084 3056 2656 
Q 3513 2228 3513 1497 
Q 3513 744 3044 326 
Q 2575 -91 1722 -91 
Q 1428 -91 1123 -41 
Q 819 9 494 109 
L 494 744 
Q 775 591 1075 516 
Q 1375 441 1709 441 
Q 2250 441 2565 725 
Q 2881 1009 2881 1497 
Q 2881 1984 2565 2268 
Q 2250 2553 1709 2553 
Q 1456 2553 1204 2497 
Q 953 2441 691 2322 
L 691 4666 
z
" transform="scale(0.015625)"/>
       </defs>
       <use xlink:href="#DejaVuSans-35"/>
      </g>
     </g>
    </g>
   </g>
   <g id="matplotlib.axis_2">
    <g id="ytick_1">
     <g id="line2d_17">
      <path d="M 32.56 457.862147 
L 529.875 457.862147 
" clip-path="url(#pa36873cb11)" style="fill: none; stroke: #b0b0b0; stroke-opacity: 0.3; stroke-width: 0.8; stroke-linecap: square"/>
     </g>
     <g id="line2d_18">
      <defs>
       <path id="mf18047083b" d="M 0 0 
L -3.5 0 
" style="stroke: #000000; stroke-width: 0.8"/>
      </defs>
      <g>
       <use xlink:href="#mf18047083b" x="32.56" y="457.862147" style="stroke: #000000; stroke-width: 0.8"/>
      </g>
     </g>
     <g id="text_9">
      <!-- −3 -->
      <g transform="translate(10.817813 461.661365) scale(0.1 -0.1)">
       <use xlink:href="#DejaVuSans-2212"/>
       <use xlink:href="#DejaVuSans-33" x="83.789062"/>
      </g>
     </g>
    </g>
    <g id="ytick_2">
     <g id="line2d_19">
      <path d="M 32.56 393.274764 
L 529.875 393.274764 
" clip-path="url(#pa36873cb11)" style="fill: none; stroke: #b0b0b0; stroke-opacity: 0.3; stroke-width: 0.8; stroke-linecap: square"/>
     </g>
     <g id="line2d_20">
      <g>
       <use xlink:href="#mf18047083b" x="32.56" y="393.274764" style="stroke: #000000; stroke-width: 0.8"/>
      </g>
     </g>
     <g id="text_10">
      <!-- −2 -->
      <g transform="translate(10.817813 397.073983) scale(0.1 -0.1)">
       <use xlink:href="#DejaVuSans-2212"/>
       <use xlink:href="#DejaVuSans-32" x="83.789062"/>
      </g>
     </g>
    </g>
    <g id="ytick_3">
     <g id="line2d_21">
      <path d="M 32.56 328.687382 
L 529.875 328.687382 
" clip-path="url(#pa36873cb11)" style="fill: none; stroke: #b0b0b0; stroke-opacity: 0.3; stroke-width: 0.8; stroke-linecap: square"/>
     </g>
     <g id="line2d_22">
      <g>
       <use xlink:href="#mf18047083b" x="32.56" y="328.687382" style="stroke: #000000; stroke-width: 0.8"/>
      </g>
     </g>
     <g id="text_11">
      <!-- −1 -->
      <g transform="translate(10.817813 332.486601) scale(0.1 -0.1)">
       <use xlink:href="#DejaVuSans-2212"/>
       <use xlink:href="#DejaVuSans-31" x="83.789062"/>
      </g>
     </g>
    </g>
    <g id="ytick_4">
     <g id="line2d_23">
      <path d="M 32.56 264.1 
L 529.875 264.1 
" clip-path="url(#pa36873cb11)" style="fill: none; stroke: #b0b0b0; stroke-opacity: 0.3; stroke-width: 0.8; stroke-linecap: square"/>
     </g>
     <g id="line2d_24">
      <g>
       <use xlink:href="#mf18047083b" x="32.56" y="264.1" style="stroke: #000000; stroke-width: 0.8"/>
      </g>
     </g>
     <g id="text_12">
      <!-- 0 -->
      <g transform="translate(19.1975 267.899219) scale(0.1 -0.1)">
       <use xlink:href="#DejaVuSans-30"/>
      </g>
     </g>
    </g>
    <g id="ytick_5">
     <g id="line2d_25">
      <path d="M 32.56 199.512618 
L 529.875 199.512618 
" clip-path="url(#pa36873cb11)" style="fill: none; stroke: #b0b0b0; stroke-opacity: 0.3; stroke-width: 0.8; stroke-linecap: square"/>
     </g>
     <g id="line2d_26">
      <g>
       <use xlink:href="#mf18047083b" x="32.56" y="199.512618" style="stroke: #000000; stroke-width: 0.8"/>
      </g>
     </g>
     <g id="text_13">
      <!-- 1 -->
      <g transform="translate(19.1975 203.311837) scale(0.1 -0.1)">
       <use xlink:href="#DejaVuSans-31"/>
      </g>
     </g>
    </g>
    <g id="ytick_6">
     <g id="line2d_27">
      <path d="M 32.56 134.925236 
L 529.875 134.925236 
" clip-path="url(#pa36873cb11)" style="fill: none; stroke: #b0b0b0; stroke-opacity: 0.3; stroke-width: 0.8; stroke-linecap: square"/>
     </g>
     <g id="line2d_28">
      <g>
       <use xlink:href="#mf18047083b" x="32.56" y="134.925236" style="stroke: #000000; stroke-width: 0.8"/>
      </g>
     </g>
     <g id="text_14">
      <!-- 2 -->
      <g transform="translate(19.1975 138.724454) scale(0.1 -0.1)">
       <use xlink:href="#DejaVuSans-32"/>
      </g>
     </g>
    </g>
    <g id="ytick_7">
     <g id="line2d_29">
      <path d="M 32.56 70.337853 
L 529.875 70.337853 
" clip-path="url(#pa36873cb11)" style="fill: none; stroke: #b0b0b0; stroke-opacity: 0.3; stroke-width: 0.8; stroke-linecap: square"/>
     </g>
     <g id="line2d_30">
      <g>
       <use xlink:href="#mf18047083b" x="32.56" y="70.337853" style="stroke: #000000; stroke-width: 0.8"/>
      </g>
     </g>
     <g id="text_15">
      <!-- 3 -->
      <g transform="translate(19.1975 74.137072) scale(0.1 -0.1)">
       <use xlink:href="#DejaVuSans-33"/>
      </g>
     </g>
    </g>
   </g>
   <g id="line2d_31">
    <path d="M 313.507626 264.1 
L 313.393559 255.958963 
L 313.051558 247.832303 
L 312.482229 239.734374 
L 311.686576 231.679476 
L 310.666004 223.681836 
L 309.422317 215.755579 
L 307.957709 207.914702 
L 306.274769 200.173053 
L 304.376469 192.544306 
L 302.26616 185.041932 
L 299.94757 177.679183 
L 297.424794 170.46906 
L 294.702287 163.424298 
L 291.784857 156.557339 
L 288.677658 149.880311 
L 285.386175 143.405004 
L 281.916224 137.142857 
L 278.273931 131.104927 
L 274.465729 125.301879 
L 270.498344 119.743961 
L 266.378784 114.440989 
L 262.114322 109.402329 
L 257.712491 104.636879 
L 253.181065 100.153056 
L 248.528047 95.958779 
L 243.761654 92.061454 
L 238.890305 88.467965 
L 233.922602 85.184659 
L 228.867319 82.217334 
L 223.733384 79.57123 
L 218.529864 77.251021 
L 213.265948 75.260805 
L 207.950935 73.604096 
L 202.594209 72.283821 
L 197.205233 71.30231 
L 191.793522 70.661299 
L 186.368636 70.361917 
L 180.940154 70.404696 
L 175.517664 70.789558 
L 170.110742 71.515824 
L 164.728938 72.582211 
L 159.381756 73.986837 
L 154.078641 75.72722 
L 148.828957 77.800287 
L 143.641976 80.202376 
L 138.526859 82.929246 
L 133.492639 85.976079 
L 128.548209 89.337497 
L 123.702299 93.00756 
L 118.963468 96.979789 
L 114.340085 101.247168 
L 109.840317 105.80216 
L 105.472109 110.63672 
L 101.243176 115.742311 
L 97.160988 121.109915 
L 93.232753 126.730053 
L 89.465409 132.592799 
L 85.86561 138.687798 
L 82.439713 145.004288 
L 79.193769 151.531111 
L 76.13351 158.256741 
L 73.264342 165.169301 
L 70.59133 172.256581 
L 68.119197 179.506065 
L 65.852308 186.90495 
L 63.794666 194.440168 
L 61.949906 202.098412 
L 60.321286 209.866157 
L 58.911681 217.729683 
L 57.723582 225.675104 
L 56.759086 233.688387 
L 56.019898 241.755379 
L 55.507322 249.861834 
L 55.222264 257.993435 
L 55.165227 266.135821 
L 55.336312 274.274612 
L 55.735217 282.395433 
L 56.361238 290.483942 
L 57.213268 298.525855 
L 58.289803 306.506969 
L 59.588942 314.413189 
L 61.10839 322.23055 
L 62.845463 329.945248 
L 64.797095 337.543657 
L 66.959838 345.012357 
L 69.329873 352.338159 
L 71.903013 359.508124 
L 74.674715 366.50959 
L 77.640083 373.33019 
L 80.793881 379.95788 
L 84.130538 386.380955 
L 87.644162 392.58807 
L 91.328547 398.568263 
L 95.177186 404.310973 
L 99.183282 409.806057 
L 103.33976 415.043811 
L 107.63928 420.014984 
L 112.074247 424.710797 
L 116.63683 429.122956 
L 121.318971 433.24367 
L 126.112399 437.06566 
L 131.008651 440.582177 
L 135.999078 443.78701 
L 141.074867 446.674499 
L 146.227053 449.239545 
L 151.446538 451.477617 
L 156.724103 453.384763 
L 162.050428 454.957615 
L 167.416105 456.193394 
L 172.811659 457.089919 
L 178.227561 457.645606 
L 183.654245 457.859473 
L 189.082128 457.731143 
L 194.501623 457.260843 
L 199.903159 456.449402 
L 205.277196 455.298255 
L 210.614244 453.809435 
L 215.904877 451.985569 
L 221.13975 449.829881 
L 226.309619 447.346176 
L 231.405353 444.538842 
L 236.417953 441.412836 
L 241.338566 437.973679 
L 246.158501 434.227445 
L 250.869247 430.180751 
L 255.462483 425.840742 
L 259.930098 421.215085 
L 264.264201 416.311947 
L 268.457137 411.139989 
L 272.501503 405.708345 
L 276.390155 400.026608 
L 280.116225 394.104812 
L 283.673132 387.953415 
L 287.054596 381.583281 
L 290.254644 375.005661 
L 293.267623 368.232172 
L 296.088214 361.274776 
L 298.711435 354.145759 
L 301.132653 346.857714 
L 303.347591 339.423511 
L 305.352338 331.85628 
L 307.143354 324.169385 
L 308.717475 316.376402 
L 310.071922 308.491093 
L 311.204301 300.527386 
L 312.112614 292.499345 
L 312.795256 284.421148 
L 313.251022 276.307062 
L 313.479106 268.171418 
L 313.507626 264.1 
L 313.507626 264.1 
" clip-path="url(#pa36873cb11)" style="fill: none; stroke: #bf00bf; stroke-width: 1.2; stroke-linecap: square"/>
   </g>
   <g id="line2d_32">
    <path d="M 507.269773 264.1 
L 507.155705 255.958963 
L 506.813705 247.832303 
L 506.244376 239.734374 
L 505.448722 231.679476 
L 504.428151 223.681836 
L 503.184463 215.755579 
L 501.719856 207.914702 
L 500.036916 200.173053 
L 498.138615 192.544306 
L 496.028307 185.041932 
L 493.709717 177.679183 
L 491.186941 170.46906 
L 488.464434 163.424298 
L 485.547004 156.557339 
L 482.439804 149.880311 
L 479.148322 143.405004 
L 475.67837 137.142857 
L 472.036077 131.104927 
L 468.227876 125.301879 
L 464.260491 119.743961 
L 460.14093 114.440989 
L 455.876469 109.402329 
L 451.474638 104.636879 
L 446.943212 100.153056 
L 442.290194 95.958779 
L 437.523801 92.061454 
L 432.652452 88.467965 
L 427.684748 85.184659 
L 422.629465 82.217334 
L 417.49553 79.57123 
L 412.29201 77.251021 
L 407.028095 75.260805 
L 401.713081 73.604096 
L 396.356356 72.283821 
L 390.96738 71.30231 
L 385.555669 70.661299 
L 380.130783 70.361917 
L 374.702301 70.404696 
L 369.279811 70.789558 
L 363.872889 71.515824 
L 358.491085 72.582211 
L 353.143903 73.986837 
L 347.840787 75.72722 
L 342.591103 77.800287 
L 337.404122 80.202376 
L 332.289005 82.929246 
L 327.254786 85.976079 
L 322.310355 89.337497 
L 317.464445 93.00756 
L 312.725615 96.979789 
L 308.102232 101.247168 
L 303.602463 105.80216 
L 299.234256 110.63672 
L 295.005323 115.742311 
L 290.923134 121.109915 
L 286.994899 126.730053 
L 283.227556 132.592799 
L 279.627757 138.687798 
L 276.20186 145.004288 
L 272.955916 151.531111 
L 269.895657 158.256741 
L 267.026488 165.169301 
L 264.353477 172.256581 
L 261.881344 179.506065 
L 259.614454 186.90495 
L 257.556813 194.440168 
L 255.712053 202.098412 
L 254.083432 209.866157 
L 252.673828 217.729683 
L 251.485729 225.675104 
L 250.521233 233.688387 
L 249.782045 241.755379 
L 249.269469 249.861834 
L 248.984411 257.993435 
L 248.927374 266.135821 
L 249.098459 274.274612 
L 249.497364 282.395433 
L 250.123385 290.483942 
L 250.975415 298.525855 
L 252.05195 306.506969 
L 253.351088 314.413189 
L 254.870536 322.23055 
L 256.60761 329.945248 
L 258.559242 337.543657 
L 260.721985 345.012357 
L 263.092019 352.338159 
L 265.66516 359.508124 
L 268.436862 366.50959 
L 271.40223 373.33019 
L 274.556028 379.95788 
L 277.892685 386.380955 
L 281.406309 392.58807 
L 285.090694 398.568263 
L 288.939333 404.310973 
L 292.945429 409.806057 
L 297.101907 415.043811 
L 301.401427 420.014984 
L 305.836394 424.710797 
L 310.398977 429.122956 
L 315.081117 433.24367 
L 319.874546 437.06566 
L 324.770797 440.582177 
L 329.761224 443.78701 
L 334.837013 446.674499 
L 339.9892 449.239545 
L 345.208685 451.477617 
L 350.48625 453.384763 
L 355.812574 454.957615 
L 361.178252 456.193394 
L 366.573806 457.089919 
L 371.989708 457.645606 
L 377.416392 457.859473 
L 382.844274 457.731143 
L 388.263769 457.260843 
L 393.665306 456.449402 
L 399.039343 455.298255 
L 404.376391 453.809435 
L 409.667023 451.985569 
L 414.901897 449.829881 
L 420.071766 447.346176 
L 425.1675 444.538842 
L 430.1801 441.412836 
L 435.100712 437.973679 
L 439.920648 434.227445 
L 444.631393 430.180751 
L 449.22463 425.840742 
L 453.692244 421.215085 
L 458.026347 416.311947 
L 462.219284 411.139989 
L 466.26365 405.708345 
L 470.152301 400.026608 
L 473.878371 394.104812 
L 477.435279 387.953415 
L 480.816743 381.583281 
L 484.01679 375.005661 
L 487.02977 368.232172 
L 489.850361 361.274776 
L 492.473582 354.145759 
L 494.894799 346.857714 
L 497.109738 339.423511 
L 499.114485 331.85628 
L 500.905501 324.169385 
L 502.479622 316.376402 
L 503.834068 308.491093 
L 504.966448 300.527386 
L 505.874761 292.499345 
L 506.557403 284.421148 
L 507.013169 276.307062 
L 507.241253 268.171418 
L 507.269773 264.1 
L 507.269773 264.1 
" clip-path="url(#pa36873cb11)" style="fill: none; stroke: #000000; stroke-width: 1.2; stroke-linecap: square"/>
   </g>
   <g id="line2d_33">
    <path d="M 281.213935 477.23542 
L 281.213935 50.96458 
" clip-path="url(#pa36873cb11)" style="fill: none; stroke-dasharray: 1.5,2.475; stroke-dashoffset: 0; stroke: #808080; stroke-opacity: 0.5; stroke-width: 1.5"/>
   </g>
   <g id="patch_4">
    <path d="M 32.56 477.23542 
L 32.56 50.96458 
" style="fill: none; stroke: #000000; stroke-width: 0.8; stroke-linejoin: miter; stroke-linecap: square"/>
   </g>
   <g id="patch_5">
    <path d="M 529.875 477.23542 
L 529.875 50.96458 
" style="fill: none; stroke: #000000; stroke-width: 0.8; stroke-linejoin: miter; stroke-linecap: square"/>
   </g>
   <g id="patch_6">
    <path d="M 32.56 477.23542 
L 529.875 477.23542 
" style="fill: none; stroke: #000000; stroke-width: 0.8; stroke-linejoin: miter; stroke-linecap: square"/>
   </g>
   <g id="patch_7">
    <path d="M 32.56 50.96458 
L 529.875 50.96458 
" style="fill: none; stroke: #000000; stroke-width: 0.8; stroke-linejoin: miter; stroke-linecap: square"/>
   </g>
   <g id="patch_8">
    <path d="M 283.146781 329.19234 
Q 292.906755 331.742145 299.962409 333.585443 
" style="fill: none; stroke: #0000ff; stroke-width: 2.5; stroke-linecap: round"/>
    <path d="M 296.597836 330.639319 
L 299.962409 333.585443 
L 295.586765 334.509427 
" style="fill: none; stroke: #0000ff; stroke-width: 2.5; stroke-linecap: round"/>
   </g>
   <g id="patch_9">
    <path d="M 279.281089 329.19234 
Q 269.521115 331.742145 262.465461 333.585443 
" style="fill: none; opacity: 0.5; stroke: #0000ff; stroke-width: 2.5; stroke-linecap: round"/>
    <path d="M 266.841104 334.509427 
L 262.465461 333.585443 
L 265.830034 330.639319 
" style="fill: none; opacity: 0.5; stroke: #0000ff; stroke-width: 2.5; stroke-linecap: round"/>
   </g>
   <g id="text_16">
    <!-- Full Geometry View -->
    <g transform="translate(222.993125 44.96458) scale(0.12 -0.12)">
     <defs>
      <path id="DejaVuSans-46" d="M 628 4666 
L 3309 4666 
L 3309 4134 
L 1259 4134 
L 1259 2759 
L 3109 2759 
L 3109 2228 
L 1259 2228 
L 1259 0 
L 628 0 
L 628 4666 
z
" transform="scale(0.015625)"/>
      <path id="DejaVuSans-75" d="M 544 1381 
L 544 3500 
L 1119 3500 
L 1119 1403 
Q 1119 906 1312 657 
Q 1506 409 1894 409 
Q 2359 409 2629 706 
Q 2900 1003 2900 1516 
L 2900 3500 
L 3475 3500 
L 3475 0 
L 2900 0 
L 2900 538 
Q 2691 219 2414 64 
Q 2138 -91 1772 -91 
Q 1169 -91 856 284 
Q 544 659 544 1381 
z
M 1991 3584 
L 1991 3584 
z
" transform="scale(0.015625)"/>
      <path id="DejaVuSans-6c" d="M 603 4863 
L 1178 4863 
L 1178 0 
L 603 0 
L 603 4863 
z
" transform="scale(0.015625)"/>
      <path id="DejaVuSans-20" transform="scale(0.015625)"/>
      <path id="DejaVuSans-47" d="M 3809 666 
L 3809 1919 
L 2778 1919 
L 2778 2438 
L 4434 2438 
L 4434 434 
Q 4069 175 3628 42 
Q 3188 -91 2688 -91 
Q 1594 -91 976 548 
Q 359 1188 359 2328 
Q 359 3472 976 4111 
Q 1594 4750 2688 4750 
Q 3144 4750 3555 4637 
Q 3966 4525 4313 4306 
L 4313 3634 
Q 3963 3931 3569 4081 
Q 3175 4231 2741 4231 
Q 1884 4231 1454 3753 
Q 1025 3275 1025 2328 
Q 1025 1384 1454 906 
Q 1884 428 2741 428 
Q 3075 428 3337 486 
Q 3600 544 3809 666 
z
" transform="scale(0.015625)"/>
      <path id="DejaVuSans-65" d="M 3597 1894 
L 3597 1613 
L 953 1613 
Q 991 1019 1311 708 
Q 1631 397 2203 397 
Q 2534 397 2845 478 
Q 3156 559 3463 722 
L 3463 178 
Q 3153 47 2828 -22 
Q 2503 -91 2169 -91 
Q 1331 -91 842 396 
Q 353 884 353 1716 
Q 353 2575 817 3079 
Q 1281 3584 2069 3584 
Q 2775 3584 3186 3129 
Q 3597 2675 3597 1894 
z
M 3022 2063 
Q 3016 2534 2758 2815 
Q 2500 3097 2075 3097 
Q 1594 3097 1305 2825 
Q 1016 2553 972 2059 
L 3022 2063 
z
" transform="scale(0.015625)"/>
      <path id="DejaVuSans-6f" d="M 1959 3097 
Q 1497 3097 1228 2736 
Q 959 2375 959 1747 
Q 959 1119 1226 758 
Q 1494 397 1959 397 
Q 2419 397 2687 759 
Q 2956 1122 2956 1747 
Q 2956 2369 2687 2733 
Q 2419 3097 1959 3097 
z
M 1959 3584 
Q 2709 3584 3137 3096 
Q 3566 2609 3566 1747 
Q 3566 888 3137 398 
Q 2709 -91 1959 -91 
Q 1206 -91 779 398 
Q 353 888 353 1747 
Q 353 2609 779 3096 
Q 1206 3584 1959 3584 
z
" transform="scale(0.015625)"/>
      <path id="DejaVuSans-6d" d="M 3328 2828 
Q 3544 3216 3844 3400 
Q 4144 3584 4550 3584 
Q 5097 3584 5394 3201 
Q 5691 2819 5691 2113 
L 5691 0 
L 5113 0 
L 5113 2094 
Q 5113 2597 4934 2840 
Q 4756 3084 4391 3084 
Q 3944 3084 3684 2787 
Q 3425 2491 3425 1978 
L 3425 0 
L 2847 0 
L 2847 2094 
Q 2847 2600 2669 2842 
Q 2491 3084 2119 3084 
Q 1678 3084 1418 2786 
Q 1159 2488 1159 1978 
L 1159 0 
L 581 0 
L 581 3500 
L 1159 3500 
L 1159 2956 
Q 1356 3278 1631 3431 
Q 1906 3584 2284 3584 
Q 2666 3584 2933 3390 
Q 3200 3197 3328 2828 
z
" transform="scale(0.015625)"/>
      <path id="DejaVuSans-74" d="M 1172 4494 
L 1172 3500 
L 2356 3500 
L 2356 3053 
L 1172 3053 
L 1172 1153 
Q 1172 725 1289 603 
Q 1406 481 1766 481 
L 2356 481 
L 2356 0 
L 1766 0 
Q 1100 0 847 248 
Q 594 497 594 1153 
L 594 3053 
L 172 3053 
L 172 3500 
L 594 3500 
L 594 4494 
L 1172 4494 
z
" transform="scale(0.015625)"/>
      <path id="DejaVuSans-72" d="M 2631 2963 
Q 2534 3019 2420 3045 
Q 2306 3072 2169 3072 
Q 1681 3072 1420 2755 
Q 1159 2438 1159 1844 
L 1159 0 
L 581 0 
L 581 3500 
L 1159 3500 
L 1159 2956 
Q 1341 3275 1631 3429 
Q 1922 3584 2338 3584 
Q 2397 3584 2469 3576 
Q 2541 3569 2628 3553 
L 2631 2963 
z
" transform="scale(0.015625)"/>
      <path id="DejaVuSans-79" d="M 2059 -325 
Q 1816 -950 1584 -1140 
Q 1353 -1331 966 -1331 
L 506 -1331 
L 506 -850 
L 844 -850 
Q 1081 -850 1212 -737 
Q 1344 -625 1503 -206 
L 1606 56 
L 191 3500 
L 800 3500 
L 1894 763 
L 2988 3500 
L 3597 3500 
L 2059 -325 
z
" transform="scale(0.015625)"/>
      <path id="DejaVuSans-56" d="M 1831 0 
L 50 4666 
L 709 4666 
L 2188 738 
L 3669 4666 
L 4325 4666 
L 2547 0 
L 1831 0 
z
" transform="scale(0.015625)"/>
      <path id="DejaVuSans-69" d="M 603 3500 
L 1178 3500 
L 1178 0 
L 603 0 
L 603 3500 
z
M 603 4863 
L 1178 4863 
L 1178 4134 
L 603 4134 
L 603 4863 
z
" transform="scale(0.015625)"/>
      <path id="DejaVuSans-77" d="M 269 3500 
L 844 3500 
L 1563 769 
L 2278 3500 
L 2956 3500 
L 3675 769 
L 4391 3500 
L 4966 3500 
L 4050 0 
L 3372 0 
L 2619 2869 
L 1863 0 
L 1184 0 
L 269 3500 
z
" transform="scale(0.015625)"/>
     </defs>
     <use xlink:href="#DejaVuSans-46"/>
     <use xlink:href="#DejaVuSans-75" x="52.019531"/>
     <use xlink:href="#DejaVuSans-6c" x="115.398438"/>
     <use xlink:href="#DejaVuSans-6c" x="143.181641"/>
     <use xlink:href="#DejaVuSans-20" x="170.964844"/>
     <use xlink:href="#DejaVuSans-47" x="202.751953"/>
     <use xlink:href="#DejaVuSans-65" x="280.242188"/>
     <use xlink:href="#DejaVuSans-6f" x="341.765625"/>
     <use xlink:href="#DejaVuSans-6d" x="402.947266"/>
     <use xlink:href="#DejaVuSans-65" x="500.359375"/>
     <use xlink:href="#DejaVuSans-74" x="561.882812"/>
     <use xlink:href="#DejaVuSans-72" x="601.091797"/>
     <use xlink:href="#DejaVuSans-79" x="642.205078"/>
     <use xlink:href="#DejaVuSans-20" x="701.384766"/>
     <use xlink:href="#DejaVuSans-56" x="733.171875"/>
     <use xlink:href="#DejaVuSans-69" x="799.330078"/>
     <use xlink:href="#DejaVuSans-65" x="827.113281"/>
     <use xlink:href="#DejaVuSans-77" x="888.636719"/>
    </g>
   </g>
   <g id="PathCollection_1">
    <defs>
     <path id="mb0ee19f94d" d="M 0 4.472136 
C 1.186024 4.472136 2.323632 4.000923 3.162278 3.162278 
C 4.000923 2.323632 4.472136 1.186024 4.472136 0 
C 4.472136 -1.186024 4.000923 -2.323632 3.162278 -3.162278 
C 2.323632 -4.000923 1.186024 -4.472136 0 -4.472136 
C -1.186024 -4.472136 -2.323632 -4.000923 -3.162278 -3.162278 
C -4.000923 -2.323632 -4.472136 -1.186024 -4.472136 0 
C -4.472136 1.186024 -4.000923 2.323632 -3.162278 3.162278 
C -2.323632 4.000923 -1.186024 4.472136 0 4.472136 
z
" style="stroke: #ff0000"/>
    </defs>
    <g clip-path="url(#pa36873cb11)">
     <use xlink:href="#mb0ee19f94d" x="281.213935" y="328.687382" style="fill: #ff0000; stroke: #ff0000"/>
    </g>
   </g>
   <g id="legend_1">
    <g id="patch_10">
     <path d="M 424.370344 94.309214 
L 524.044 94.309214 
Q 525.71 94.309214 525.71 92.643214 
L 525.71 56.79558 
Q 525.71 55.12958 524.044 55.12958 
L 424.370344 55.12958 
Q 422.704344 55.12958 422.704344 56.79558 
L 422.704344 92.643214 
Q 422.704344 94.309214 424.370344 94.309214 
z
" style="fill: #ffffff; opacity: 0.8; stroke: #cccccc; stroke-linejoin: miter"/>
    </g>
    <g id="line2d_34">
     <path d="M 426.036344 61.875578 
L 434.366344 61.875578 
L 442.696344 61.875578 
" style="fill: none; stroke: #bf00bf; stroke-width: 1.2; stroke-linecap: square"/>
    </g>
    <g id="text_17">
     <!-- Ellipse 1 -->
     <g transform="translate(449.360344 64.791078) scale(0.0833 -0.0833)">
      <defs>
       <path id="DejaVuSans-45" d="M 628 4666 
L 3578 4666 
L 3578 4134 
L 1259 4134 
L 1259 2753 
L 3481 2753 
L 3481 2222 
L 1259 2222 
L 1259 531 
L 3634 531 
L 3634 0 
L 628 0 
L 628 4666 
z
" transform="scale(0.015625)"/>
       <path id="DejaVuSans-70" d="M 1159 525 
L 1159 -1331 
L 581 -1331 
L 581 3500 
L 1159 3500 
L 1159 2969 
Q 1341 3281 1617 3432 
Q 1894 3584 2278 3584 
Q 2916 3584 3314 3078 
Q 3713 2572 3713 1747 
Q 3713 922 3314 415 
Q 2916 -91 2278 -91 
Q 1894 -91 1617 61 
Q 1341 213 1159 525 
z
M 3116 1747 
Q 3116 2381 2855 2742 
Q 2594 3103 2138 3103 
Q 1681 3103 1420 2742 
Q 1159 2381 1159 1747 
Q 1159 1113 1420 752 
Q 1681 391 2138 391 
Q 2594 391 2855 752 
Q 3116 1113 3116 1747 
z
" transform="scale(0.015625)"/>
       <path id="DejaVuSans-73" d="M 2834 3397 
L 2834 2853 
Q 2591 2978 2328 3040 
Q 2066 3103 1784 3103 
Q 1356 3103 1142 2972 
Q 928 2841 928 2578 
Q 928 2378 1081 2264 
Q 1234 2150 1697 2047 
L 1894 2003 
Q 2506 1872 2764 1633 
Q 3022 1394 3022 966 
Q 3022 478 2636 193 
Q 2250 -91 1575 -91 
Q 1294 -91 989 -36 
Q 684 19 347 128 
L 347 722 
Q 666 556 975 473 
Q 1284 391 1588 391 
Q 1994 391 2212 530 
Q 2431 669 2431 922 
Q 2431 1156 2273 1281 
Q 2116 1406 1581 1522 
L 1381 1569 
Q 847 1681 609 1914 
Q 372 2147 372 2553 
Q 372 3047 722 3315 
Q 1072 3584 1716 3584 
Q 2034 3584 2315 3537 
Q 2597 3491 2834 3397 
z
" transform="scale(0.015625)"/>
      </defs>
      <use xlink:href="#DejaVuSans-45"/>
      <use xlink:href="#DejaVuSans-6c" x="63.183594"/>
      <use xlink:href="#DejaVuSans-6c" x="90.966797"/>
      <use xlink:href="#DejaVuSans-69" x="118.75"/>
      <use xlink:href="#DejaVuSans-70" x="146.533203"/>
      <use xlink:href="#DejaVuSans-73" x="210.009766"/>
      <use xlink:href="#DejaVuSans-65" x="262.109375"/>
      <use xlink:href="#DejaVuSans-20" x="323.632812"/>
      <use xlink:href="#DejaVuSans-31" x="355.419922"/>
     </g>
    </g>
    <g id="line2d_35">
     <path d="M 426.036344 74.102456 
L 434.366344 74.102456 
L 442.696344 74.102456 
" style="fill: none; stroke: #000000; stroke-width: 1.2; stroke-linecap: square"/>
    </g>
    <g id="text_18">
     <!-- Ellipse 2 -->
     <g transform="translate(449.360344 77.017956) scale(0.0833 -0.0833)">
      <use xlink:href="#DejaVuSans-45"/>
      <use xlink:href="#DejaVuSans-6c" x="63.183594"/>
      <use xlink:href="#DejaVuSans-6c" x="90.966797"/>
      <use xlink:href="#DejaVuSans-69" x="118.75"/>
      <use xlink:href="#DejaVuSans-70" x="146.533203"/>
      <use xlink:href="#DejaVuSans-73" x="210.009766"/>
      <use xlink:href="#DejaVuSans-65" x="262.109375"/>
      <use xlink:href="#DejaVuSans-20" x="323.632812"/>
      <use xlink:href="#DejaVuSans-32" x="355.419922"/>
     </g>
    </g>
    <g id="PathCollection_2">
     <g>
      <use xlink:href="#mb0ee19f94d" x="434.366344" y="87.05821" style="fill: #ff0000; stroke: #ff0000"/>
     </g>
    </g>
    <g id="text_19">
     <!-- Center P (y=-1.0) -->
     <g transform="translate(449.360344 89.244835) scale(0.0833 -0.0833)">
      <defs>
       <path id="DejaVuSans-43" d="M 4122 4306 
L 4122 3641 
Q 3803 3938 3442 4084 
Q 3081 4231 2675 4231 
Q 1875 4231 1450 3742 
Q 1025 3253 1025 2328 
Q 1025 1406 1450 917 
Q 1875 428 2675 428 
Q 3081 428 3442 575 
Q 3803 722 4122 1019 
L 4122 359 
Q 3791 134 3420 21 
Q 3050 -91 2638 -91 
Q 1578 -91 968 557 
Q 359 1206 359 2328 
Q 359 3453 968 4101 
Q 1578 4750 2638 4750 
Q 3056 4750 3426 4639 
Q 3797 4528 4122 4306 
z
" transform="scale(0.015625)"/>
       <path id="DejaVuSans-6e" d="M 3513 2113 
L 3513 0 
L 2938 0 
L 2938 2094 
Q 2938 2591 2744 2837 
Q 2550 3084 2163 3084 
Q 1697 3084 1428 2787 
Q 1159 2491 1159 1978 
L 1159 0 
L 581 0 
L 581 3500 
L 1159 3500 
L 1159 2956 
Q 1366 3272 1645 3428 
Q 1925 3584 2291 3584 
Q 2894 3584 3203 3211 
Q 3513 2838 3513 2113 
z
" transform="scale(0.015625)"/>
       <path id="DejaVuSans-50" d="M 1259 4147 
L 1259 2394 
L 2053 2394 
Q 2494 2394 2734 2622 
Q 2975 2850 2975 3272 
Q 2975 3691 2734 3919 
Q 2494 4147 2053 4147 
L 1259 4147 
z
M 628 4666 
L 2053 4666 
Q 2838 4666 3239 4311 
Q 3641 3956 3641 3272 
Q 3641 2581 3239 2228 
Q 2838 1875 2053 1875 
L 1259 1875 
L 1259 0 
L 628 0 
L 628 4666 
z
" transform="scale(0.015625)"/>
       <path id="DejaVuSans-28" d="M 1984 4856 
Q 1566 4138 1362 3434 
Q 1159 2731 1159 2009 
Q 1159 1288 1364 580 
Q 1569 -128 1984 -844 
L 1484 -844 
Q 1016 -109 783 600 
Q 550 1309 550 2009 
Q 550 2706 781 3412 
Q 1013 4119 1484 4856 
L 1984 4856 
z
" transform="scale(0.015625)"/>
       <path id="DejaVuSans-3d" d="M 678 2906 
L 4684 2906 
L 4684 2381 
L 678 2381 
L 678 2906 
z
M 678 1631 
L 4684 1631 
L 4684 1100 
L 678 1100 
L 678 1631 
z
" transform="scale(0.015625)"/>
       <path id="DejaVuSans-2d" d="M 313 2009 
L 1997 2009 
L 1997 1497 
L 313 1497 
L 313 2009 
z
" transform="scale(0.015625)"/>
       <path id="DejaVuSans-2e" d="M 684 794 
L 1344 794 
L 1344 0 
L 684 0 
L 684 794 
z
" transform="scale(0.015625)"/>
       <path id="DejaVuSans-29" d="M 513 4856 
L 1013 4856 
Q 1481 4119 1714 3412 
Q 1947 2706 1947 2009 
Q 1947 1309 1714 600 
Q 1481 -109 1013 -844 
L 513 -844 
Q 928 -128 1133 580 
Q 1338 1288 1338 2009 
Q 1338 2731 1133 3434 
Q 928 4138 513 4856 
z
" transform="scale(0.015625)"/>
      </defs>
      <use xlink:href="#DejaVuSans-43"/>
      <use xlink:href="#DejaVuSans-65" x="69.824219"/>
      <use xlink:href="#DejaVuSans-6e" x="131.347656"/>
      <use xlink:href="#DejaVuSans-74" x="194.726562"/>
      <use xlink:href="#DejaVuSans-65" x="233.935547"/>
      <use xlink:href="#DejaVuSans-72" x="295.458984"/>
      <use xlink:href="#DejaVuSans-20" x="336.572266"/>
      <use xlink:href="#DejaVuSans-50" x="368.359375"/>
      <use xlink:href="#DejaVuSans-20" x="428.662109"/>
      <use xlink:href="#DejaVuSans-28" x="460.449219"/>
      <use xlink:href="#DejaVuSans-79" x="499.462891"/>
      <use xlink:href="#DejaVuSans-3d" x="558.642578"/>
      <use xlink:href="#DejaVuSans-2d" x="642.431641"/>
      <use xlink:href="#DejaVuSans-31" x="678.515625"/>
      <use xlink:href="#DejaVuSans-2e" x="742.138672"/>
      <use xlink:href="#DejaVuSans-30" x="773.925781"/>
      <use xlink:href="#DejaVuSans-29" x="837.548828"/>
     </g>
    </g>
   </g>
   <g id="PathCollection_3">
    <defs>
     <path id="mc3b7e72621" d="M 0 3.535534 
C 0.937635 3.535534 1.836992 3.163008 2.5 2.5 
C 3.163008 1.836992 3.535534 0.937635 3.535534 0 
C 3.535534 -0.937635 3.163008 -1.836992 2.5 -2.5 
C 1.836992 -3.163008 0.937635 -3.535534 0 -3.535534 
C -0.937635 -3.535534 -1.836992 -3.163008 -2.5 -2.5 
C -3.163008 -1.836992 -3.535534 -0.937635 -3.535534 0 
C -3.535534 0.937635 -3.163008 1.836992 -2.5 2.5 
C -1.836992 3.163008 -0.937635 3.535534 0 3.535534 
z
" style="stroke: #0000ff"/>
    </defs>
    <g clip-path="url(#pa36873cb11)">
     <use xlink:href="#mc3b7e72621" x="304.602224" y="334.7976" style="fill: #0000ff; stroke: #0000ff"/>
     <use xlink:href="#mc3b7e72621" x="257.825646" y="334.7976" style="fill: #0000ff; stroke: #0000ff"/>
    </g>
   </g>
  </g>
  <g id="axes_2">
   <g id="patch_11">
    <path d="M 604.709773 479.932727 
L 1036.375227 479.932727 
L 1036.375227 48.267273 
L 604.709773 48.267273 
z
" style="fill: #ffffff"/>
   </g>
   <g id="patch_12">
    <path d="M 820.5425 407.988485 
C 858.702172 407.988485 895.30406 392.827486 922.287023 365.844523 
C 949.269986 338.86156 964.430985 302.259672 964.430985 264.1 
C 964.430985 225.940328 949.269986 189.33844 922.287023 162.355477 
C 895.30406 135.372514 858.702172 120.211515 820.5425 120.211515 
C 782.382828 120.211515 745.78094 135.372514 718.797977 162.355477 
C 691.815014 189.33844 676.654015 225.940328 676.654015 264.1 
C 676.654015 302.259672 691.815014 338.86156 718.797977 365.844523 
C 745.78094 392.827486 782.382828 407.988485 820.5425 407.988485 
L 820.5425 407.988485 
z
" clip-path="url(#p9d8837ef90)" style="fill: none; stroke-dasharray: 7.4,3.2; stroke-dashoffset: 0; stroke: #0000ff; stroke-width: 2; stroke-linejoin: miter"/>
   </g>
   <g id="matplotlib.axis_3">
    <g id="xtick_9">
     <g id="line2d_36">
      <path d="M 628.318157 479.932727 
L 628.318157 48.267273 
" clip-path="url(#p9d8837ef90)" style="fill: none; stroke: #b0b0b0; stroke-opacity: 0.3; stroke-width: 0.8; stroke-linecap: square"/>
     </g>
     <g id="line2d_37">
      <g>
       <use xlink:href="#m5f19b8b661" x="628.318157" y="479.932727" style="stroke: #000000; stroke-width: 0.8"/>
      </g>
     </g>
     <g id="text_20">
      <!-- 1.0 -->
      <g transform="translate(620.366595 494.531165) scale(0.1 -0.1)">
       <use xlink:href="#DejaVuSans-31"/>
       <use xlink:href="#DejaVuSans-2e" x="63.623047"/>
       <use xlink:href="#DejaVuSans-30" x="95.410156"/>
      </g>
     </g>
    </g>
    <g id="xtick_10">
     <g id="line2d_38">
      <path d="M 705.207894 479.932727 
L 705.207894 48.267273 
" clip-path="url(#p9d8837ef90)" style="fill: none; stroke: #b0b0b0; stroke-opacity: 0.3; stroke-width: 0.8; stroke-linecap: square"/>
     </g>
     <g id="line2d_39">
      <g>
       <use xlink:href="#m5f19b8b661" x="705.207894" y="479.932727" style="stroke: #000000; stroke-width: 0.8"/>
      </g>
     </g>
     <g id="text_21">
      <!-- 1.2 -->
      <g transform="translate(697.256332 494.531165) scale(0.1 -0.1)">
       <use xlink:href="#DejaVuSans-31"/>
       <use xlink:href="#DejaVuSans-2e" x="63.623047"/>
       <use xlink:href="#DejaVuSans-32" x="95.410156"/>
      </g>
     </g>
    </g>
    <g id="xtick_11">
     <g id="line2d_40">
      <path d="M 782.097631 479.932727 
L 782.097631 48.267273 
" clip-path="url(#p9d8837ef90)" style="fill: none; stroke: #b0b0b0; stroke-opacity: 0.3; stroke-width: 0.8; stroke-linecap: square"/>
     </g>
     <g id="line2d_41">
      <g>
       <use xlink:href="#m5f19b8b661" x="782.097631" y="479.932727" style="stroke: #000000; stroke-width: 0.8"/>
      </g>
     </g>
     <g id="text_22">
      <!-- 1.4 -->
      <g transform="translate(774.146069 494.531165) scale(0.1 -0.1)">
       <use xlink:href="#DejaVuSans-31"/>
       <use xlink:href="#DejaVuSans-2e" x="63.623047"/>
       <use xlink:href="#DejaVuSans-34" x="95.410156"/>
      </g>
     </g>
    </g>
    <g id="xtick_12">
     <g id="line2d_42">
      <path d="M 858.987369 479.932727 
L 858.987369 48.267273 
" clip-path="url(#p9d8837ef90)" style="fill: none; stroke: #b0b0b0; stroke-opacity: 0.3; stroke-width: 0.8; stroke-linecap: square"/>
     </g>
     <g id="line2d_43">
      <g>
       <use xlink:href="#m5f19b8b661" x="858.987369" y="479.932727" style="stroke: #000000; stroke-width: 0.8"/>
      </g>
     </g>
     <g id="text_23">
      <!-- 1.6 -->
      <g transform="translate(851.035806 494.531165) scale(0.1 -0.1)">
       <defs>
        <path id="DejaVuSans-36" d="M 2113 2584 
Q 1688 2584 1439 2293 
Q 1191 2003 1191 1497 
Q 1191 994 1439 701 
Q 1688 409 2113 409 
Q 2538 409 2786 701 
Q 3034 994 3034 1497 
Q 3034 2003 2786 2293 
Q 2538 2584 2113 2584 
z
M 3366 4563 
L 3366 3988 
Q 3128 4100 2886 4159 
Q 2644 4219 2406 4219 
Q 1781 4219 1451 3797 
Q 1122 3375 1075 2522 
Q 1259 2794 1537 2939 
Q 1816 3084 2150 3084 
Q 2853 3084 3261 2657 
Q 3669 2231 3669 1497 
Q 3669 778 3244 343 
Q 2819 -91 2113 -91 
Q 1303 -91 875 529 
Q 447 1150 447 2328 
Q 447 3434 972 4092 
Q 1497 4750 2381 4750 
Q 2619 4750 2861 4703 
Q 3103 4656 3366 4563 
z
" transform="scale(0.015625)"/>
       </defs>
       <use xlink:href="#DejaVuSans-31"/>
       <use xlink:href="#DejaVuSans-2e" x="63.623047"/>
       <use xlink:href="#DejaVuSans-36" x="95.410156"/>
      </g>
     </g>
    </g>
    <g id="xtick_13">
     <g id="line2d_44">
      <path d="M 935.877106 479.932727 
L 935.877106 48.267273 
" clip-path="url(#p9d8837ef90)" style="fill: none; stroke: #b0b0b0; stroke-opacity: 0.3; stroke-width: 0.8; stroke-linecap: square"/>
     </g>
     <g id="line2d_45">
      <g>
       <use xlink:href="#m5f19b8b661" x="935.877106" y="479.932727" style="stroke: #000000; stroke-width: 0.8"/>
      </g>
     </g>
     <g id="text_24">
      <!-- 1.8 -->
      <g transform="translate(927.925543 494.531165) scale(0.1 -0.1)">
       <defs>
        <path id="DejaVuSans-38" d="M 2034 2216 
Q 1584 2216 1326 1975 
Q 1069 1734 1069 1313 
Q 1069 891 1326 650 
Q 1584 409 2034 409 
Q 2484 409 2743 651 
Q 3003 894 3003 1313 
Q 3003 1734 2745 1975 
Q 2488 2216 2034 2216 
z
M 1403 2484 
Q 997 2584 770 2862 
Q 544 3141 544 3541 
Q 544 4100 942 4425 
Q 1341 4750 2034 4750 
Q 2731 4750 3128 4425 
Q 3525 4100 3525 3541 
Q 3525 3141 3298 2862 
Q 3072 2584 2669 2484 
Q 3125 2378 3379 2068 
Q 3634 1759 3634 1313 
Q 3634 634 3220 271 
Q 2806 -91 2034 -91 
Q 1263 -91 848 271 
Q 434 634 434 1313 
Q 434 1759 690 2068 
Q 947 2378 1403 2484 
z
M 1172 3481 
Q 1172 3119 1398 2916 
Q 1625 2713 2034 2713 
Q 2441 2713 2670 2916 
Q 2900 3119 2900 3481 
Q 2900 3844 2670 4047 
Q 2441 4250 2034 4250 
Q 1625 4250 1398 4047 
Q 1172 3844 1172 3481 
z
" transform="scale(0.015625)"/>
       </defs>
       <use xlink:href="#DejaVuSans-31"/>
       <use xlink:href="#DejaVuSans-2e" x="63.623047"/>
       <use xlink:href="#DejaVuSans-38" x="95.410156"/>
      </g>
     </g>
    </g>
    <g id="xtick_14">
     <g id="line2d_46">
      <path d="M 1012.766843 479.932727 
L 1012.766843 48.267273 
" clip-path="url(#p9d8837ef90)" style="fill: none; stroke: #b0b0b0; stroke-opacity: 0.3; stroke-width: 0.8; stroke-linecap: square"/>
     </g>
     <g id="line2d_47">
      <g>
       <use xlink:href="#m5f19b8b661" x="1012.766843" y="479.932727" style="stroke: #000000; stroke-width: 0.8"/>
      </g>
     </g>
     <g id="text_25">
      <!-- 2.0 -->
      <g transform="translate(1004.81528 494.531165) scale(0.1 -0.1)">
       <use xlink:href="#DejaVuSans-32"/>
       <use xlink:href="#DejaVuSans-2e" x="63.623047"/>
       <use xlink:href="#DejaVuSans-30" x="95.410156"/>
      </g>
     </g>
    </g>
   </g>
   <g id="matplotlib.axis_4">
    <g id="ytick_8">
     <g id="line2d_48">
      <path d="M 604.709773 417.879474 
L 1036.375227 417.879474 
" clip-path="url(#p9d8837ef90)" style="fill: none; stroke: #b0b0b0; stroke-opacity: 0.3; stroke-width: 0.8; stroke-linecap: square"/>
     </g>
     <g id="line2d_49">
      <g>
       <use xlink:href="#mf18047083b" x="604.709773" y="417.879474" style="stroke: #000000; stroke-width: 0.8"/>
      </g>
     </g>
     <g id="text_26">
      <!-- −1.4 -->
      <g transform="translate(573.42696 421.678693) scale(0.1 -0.1)">
       <use xlink:href="#DejaVuSans-2212"/>
       <use xlink:href="#DejaVuSans-31" x="83.789062"/>
       <use xlink:href="#DejaVuSans-2e" x="147.412109"/>
       <use xlink:href="#DejaVuSans-34" x="179.199219"/>
      </g>
     </g>
    </g>
    <g id="ytick_9">
     <g id="line2d_50">
      <path d="M 604.709773 340.989737 
L 1036.375227 340.989737 
" clip-path="url(#p9d8837ef90)" style="fill: none; stroke: #b0b0b0; stroke-opacity: 0.3; stroke-width: 0.8; stroke-linecap: square"/>
     </g>
     <g id="line2d_51">
      <g>
       <use xlink:href="#mf18047083b" x="604.709773" y="340.989737" style="stroke: #000000; stroke-width: 0.8"/>
      </g>
     </g>
     <g id="text_27">
      <!-- −1.2 -->
      <g transform="translate(573.42696 344.788956) scale(0.1 -0.1)">
       <use xlink:href="#DejaVuSans-2212"/>
       <use xlink:href="#DejaVuSans-31" x="83.789062"/>
       <use xlink:href="#DejaVuSans-2e" x="147.412109"/>
       <use xlink:href="#DejaVuSans-32" x="179.199219"/>
      </g>
     </g>
    </g>
    <g id="ytick_10">
     <g id="line2d_52">
      <path d="M 604.709773 264.1 
L 1036.375227 264.1 
" clip-path="url(#p9d8837ef90)" style="fill: none; stroke: #b0b0b0; stroke-opacity: 0.3; stroke-width: 0.8; stroke-linecap: square"/>
     </g>
     <g id="line2d_53">
      <g>
       <use xlink:href="#mf18047083b" x="604.709773" y="264.1" style="stroke: #000000; stroke-width: 0.8"/>
      </g>
     </g>
     <g id="text_28">
      <!-- −1.0 -->
      <g transform="translate(573.42696 267.899219) scale(0.1 -0.1)">
       <use xlink:href="#DejaVuSans-2212"/>
       <use xlink:href="#DejaVuSans-31" x="83.789062"/>
       <use xlink:href="#DejaVuSans-2e" x="147.412109"/>
       <use xlink:href="#DejaVuSans-30" x="179.199219"/>
      </g>
     </g>
    </g>
    <g id="ytick_11">
     <g id="line2d_54">
      <path d="M 604.709773 187.210263 
L 1036.375227 187.210263 
" clip-path="url(#p9d8837ef90)" style="fill: none; stroke: #b0b0b0; stroke-opacity: 0.3; stroke-width: 0.8; stroke-linecap: square"/>
     </g>
     <g id="line2d_55">
      <g>
       <use xlink:href="#mf18047083b" x="604.709773" y="187.210263" style="stroke: #000000; stroke-width: 0.8"/>
      </g>
     </g>
     <g id="text_29">
      <!-- −0.8 -->
      <g transform="translate(573.42696 191.009482) scale(0.1 -0.1)">
       <use xlink:href="#DejaVuSans-2212"/>
       <use xlink:href="#DejaVuSans-30" x="83.789062"/>
       <use xlink:href="#DejaVuSans-2e" x="147.412109"/>
       <use xlink:href="#DejaVuSans-38" x="179.199219"/>
      </g>
     </g>
    </g>
    <g id="ytick_12">
     <g id="line2d_56">
      <path d="M 604.709773 110.320526 
L 1036.375227 110.320526 
" clip-path="url(#p9d8837ef90)" style="fill: none; stroke: #b0b0b0; stroke-opacity: 0.3; stroke-width: 0.8; stroke-linecap: square"/>
     </g>
     <g id="line2d_57">
      <g>
       <use xlink:href="#mf18047083b" x="604.709773" y="110.320526" style="stroke: #000000; stroke-width: 0.8"/>
      </g>
     </g>
     <g id="text_30">
      <!-- −0.6 -->
      <g transform="translate(573.42696 114.119744) scale(0.1 -0.1)">
       <use xlink:href="#DejaVuSans-2212"/>
       <use xlink:href="#DejaVuSans-30" x="83.789062"/>
       <use xlink:href="#DejaVuSans-2e" x="147.412109"/>
       <use xlink:href="#DejaVuSans-36" x="179.199219"/>
      </g>
     </g>
    </g>
   </g>
   <g id="line2d_58">
    <path d="M 889.893185 505 
L 892.290642 499.485642 
L 900.830306 478.911414 
L 909.079874 458.07257 
L 917.035704 436.978311 
L 924.694282 415.637952 
L 932.052228 394.060917 
L 939.106291 372.256733 
L 945.853357 350.235028 
L 952.290447 328.005527 
L 958.414719 305.578045 
L 964.223467 282.962485 
L 969.714127 260.168835 
L 974.884275 237.207159 
L 979.731627 214.087597 
L 984.254043 190.820357 
L 988.449526 167.415713 
L 992.316223 143.884 
L 995.852428 120.23561 
L 999.056577 96.480985 
L 1001.927258 72.630614 
L 1004.463202 48.695029 
L 1006.663288 24.684798 
L 1008.628381 -1 
L 1008.628381 -1 
" clip-path="url(#p9d8837ef90)" style="fill: none; stroke: #bf00bf; stroke-width: 1.2; stroke-linecap: square"/>
   </g>
   <g id="line2d_59">
    <path d="M 632.487901 -1 
L 633.447924 12.655003 
L 635.479709 36.698582 
L 637.847855 60.672813 
L 640.551316 84.56711 
L 643.588899 108.370923 
L 646.959262 132.073739 
L 650.660917 155.665092 
L 654.69223 179.134566 
L 659.05142 202.471796 
L 663.736563 225.666477 
L 668.745589 248.708368 
L 674.076287 271.587294 
L 679.726303 294.293152 
L 685.693142 316.815916 
L 691.97417 339.14564 
L 698.566612 361.272465 
L 705.467558 383.186619 
L 712.67396 404.878426 
L 720.182636 426.338308 
L 727.990271 447.556788 
L 736.093418 468.524497 
L 744.488497 489.232176 
L 751.187461 505 
L 751.187461 505 
" clip-path="url(#p9d8837ef90)" style="fill: none; stroke: #000000; stroke-width: 1.2; stroke-linecap: square"/>
   </g>
   <g id="line2d_60">
    <path d="M 820.5425 479.932727 
L 820.5425 48.267273 
" clip-path="url(#p9d8837ef90)" style="fill: none; stroke-dasharray: 1.5,2.475; stroke-dashoffset: 0; stroke: #808080; stroke-opacity: 0.5; stroke-width: 1.5"/>
   </g>
   <g id="patch_13">
    <path d="M 604.709773 479.932727 
L 604.709773 48.267273 
" style="fill: none; stroke: #000000; stroke-width: 0.8; stroke-linejoin: miter; stroke-linecap: square"/>
   </g>
   <g id="patch_14">
    <path d="M 1036.375227 479.932727 
L 1036.375227 48.267273 
" style="fill: none; stroke: #000000; stroke-width: 0.8; stroke-linejoin: miter; stroke-linecap: square"/>
   </g>
   <g id="patch_15">
    <path d="M 604.709773 479.932727 
L 1036.375227 479.932727 
" style="fill: none; stroke: #000000; stroke-width: 0.8; stroke-linejoin: miter; stroke-linecap: square"/>
   </g>
   <g id="patch_16">
    <path d="M 604.709773 48.267273 
L 1036.375227 48.267273 
" style="fill: none; stroke: #000000; stroke-width: 0.8; stroke-linejoin: miter; stroke-linecap: square"/>
   </g>
   <g id="patch_17">
    <path d="M 822.475583 264.60502 
Q 890.151351 282.285395 955.122799 299.259262 
" style="fill: none; stroke: #0000ff; stroke-width: 2.5; stroke-linecap: round"/>
    <path d="M 951.758226 296.313138 
L 955.122799 299.259262 
L 950.747156 300.183246 
" style="fill: none; stroke: #0000ff; stroke-width: 2.5; stroke-linecap: round"/>
   </g>
   <g id="patch_18">
    <path d="M 818.609417 264.60502 
Q 750.933649 282.285395 685.962201 299.259262 
" style="fill: none; opacity: 0.5; stroke: #0000ff; stroke-width: 2.5; stroke-linecap: round"/>
    <path d="M 690.337844 300.183246 
L 685.962201 299.259262 
L 689.326774 296.313138 
" style="fill: none; opacity: 0.5; stroke: #0000ff; stroke-width: 2.5; stroke-linecap: round"/>
   </g>
   <g id="text_31">
    <!-- Zoomed View (Radius = 0.374) -->
    <g transform="translate(726.880625 42.267273) scale(0.12 -0.12)">
     <defs>
      <path id="DejaVuSans-5a" d="M 359 4666 
L 4025 4666 
L 4025 4184 
L 1075 531 
L 4097 531 
L 4097 0 
L 288 0 
L 288 481 
L 3238 4134 
L 359 4134 
L 359 4666 
z
" transform="scale(0.015625)"/>
      <path id="DejaVuSans-64" d="M 2906 2969 
L 2906 4863 
L 3481 4863 
L 3481 0 
L 2906 0 
L 2906 525 
Q 2725 213 2448 61 
Q 2172 -91 1784 -91 
Q 1150 -91 751 415 
Q 353 922 353 1747 
Q 353 2572 751 3078 
Q 1150 3584 1784 3584 
Q 2172 3584 2448 3432 
Q 2725 3281 2906 2969 
z
M 947 1747 
Q 947 1113 1208 752 
Q 1469 391 1925 391 
Q 2381 391 2643 752 
Q 2906 1113 2906 1747 
Q 2906 2381 2643 2742 
Q 2381 3103 1925 3103 
Q 1469 3103 1208 2742 
Q 947 2381 947 1747 
z
" transform="scale(0.015625)"/>
      <path id="DejaVuSans-52" d="M 2841 2188 
Q 3044 2119 3236 1894 
Q 3428 1669 3622 1275 
L 4263 0 
L 3584 0 
L 2988 1197 
Q 2756 1666 2539 1819 
Q 2322 1972 1947 1972 
L 1259 1972 
L 1259 0 
L 628 0 
L 628 4666 
L 2053 4666 
Q 2853 4666 3247 4331 
Q 3641 3997 3641 3322 
Q 3641 2881 3436 2590 
Q 3231 2300 2841 2188 
z
M 1259 4147 
L 1259 2491 
L 2053 2491 
Q 2509 2491 2742 2702 
Q 2975 2913 2975 3322 
Q 2975 3731 2742 3939 
Q 2509 4147 2053 4147 
L 1259 4147 
z
" transform="scale(0.015625)"/>
      <path id="DejaVuSans-61" d="M 2194 1759 
Q 1497 1759 1228 1600 
Q 959 1441 959 1056 
Q 959 750 1161 570 
Q 1363 391 1709 391 
Q 2188 391 2477 730 
Q 2766 1069 2766 1631 
L 2766 1759 
L 2194 1759 
z
M 3341 1997 
L 3341 0 
L 2766 0 
L 2766 531 
Q 2569 213 2275 61 
Q 1981 -91 1556 -91 
Q 1019 -91 701 211 
Q 384 513 384 1019 
Q 384 1609 779 1909 
Q 1175 2209 1959 2209 
L 2766 2209 
L 2766 2266 
Q 2766 2663 2505 2880 
Q 2244 3097 1772 3097 
Q 1472 3097 1187 3025 
Q 903 2953 641 2809 
L 641 3341 
Q 956 3463 1253 3523 
Q 1550 3584 1831 3584 
Q 2591 3584 2966 3190 
Q 3341 2797 3341 1997 
z
" transform="scale(0.015625)"/>
      <path id="DejaVuSans-37" d="M 525 4666 
L 3525 4666 
L 3525 4397 
L 1831 0 
L 1172 0 
L 2766 4134 
L 525 4134 
L 525 4666 
z
" transform="scale(0.015625)"/>
     </defs>
     <use xlink:href="#DejaVuSans-5a"/>
     <use xlink:href="#DejaVuSans-6f" x="68.505859"/>
     <use xlink:href="#DejaVuSans-6f" x="129.6875"/>
     <use xlink:href="#DejaVuSans-6d" x="190.869141"/>
     <use xlink:href="#DejaVuSans-65" x="288.28125"/>
     <use xlink:href="#DejaVuSans-64" x="349.804688"/>
     <use xlink:href="#DejaVuSans-20" x="413.28125"/>
     <use xlink:href="#DejaVuSans-56" x="445.068359"/>
     <use xlink:href="#DejaVuSans-69" x="511.226562"/>
     <use xlink:href="#DejaVuSans-65" x="539.009766"/>
     <use xlink:href="#DejaVuSans-77" x="600.533203"/>
     <use xlink:href="#DejaVuSans-20" x="682.320312"/>
     <use xlink:href="#DejaVuSans-28" x="714.107422"/>
     <use xlink:href="#DejaVuSans-52" x="753.121094"/>
     <use xlink:href="#DejaVuSans-61" x="820.353516"/>
     <use xlink:href="#DejaVuSans-64" x="881.632812"/>
     <use xlink:href="#DejaVuSans-69" x="945.109375"/>
     <use xlink:href="#DejaVuSans-75" x="972.892578"/>
     <use xlink:href="#DejaVuSans-73" x="1036.271484"/>
     <use xlink:href="#DejaVuSans-20" x="1088.371094"/>
     <use xlink:href="#DejaVuSans-3d" x="1120.158203"/>
     <use xlink:href="#DejaVuSans-20" x="1203.947266"/>
     <use xlink:href="#DejaVuSans-30" x="1235.734375"/>
     <use xlink:href="#DejaVuSans-2e" x="1299.357422"/>
     <use xlink:href="#DejaVuSans-33" x="1331.144531"/>
     <use xlink:href="#DejaVuSans-37" x="1394.767578"/>
     <use xlink:href="#DejaVuSans-34" x="1458.390625"/>
     <use xlink:href="#DejaVuSans-29" x="1522.013672"/>
    </g>
   </g>
   <g id="PathCollection_4">
    <g clip-path="url(#p9d8837ef90)">
     <use xlink:href="#mb0ee19f94d" x="820.5425" y="264.1" style="fill: #ff0000; stroke: #ff0000"/>
    </g>
   </g>
   <g id="PathCollection_5">
    <g clip-path="url(#p9d8837ef90)">
     <use xlink:href="#mc3b7e72621" x="959.758498" y="300.470344" style="fill: #0000ff; stroke: #0000ff"/>
     <use xlink:href="#mc3b7e72621" x="681.326502" y="300.470344" style="fill: #0000ff; stroke: #0000ff"/>
    </g>
   </g>
  </g>
  <g id="text_32">
   <!-- Dynamic Geometry Analysis (t* = 5.9097) -->
   <g transform="translate(381.6375 21.477656) scale(0.15 -0.15)">
    <defs>
     <path id="DejaVuSans-44" d="M 1259 4147 
L 1259 519 
L 2022 519 
Q 2988 519 3436 956 
Q 3884 1394 3884 2338 
Q 3884 3275 3436 3711 
Q 2988 4147 2022 4147 
L 1259 4147 
z
M 628 4666 
L 1925 4666 
Q 3281 4666 3915 4102 
Q 4550 3538 4550 2338 
Q 4550 1131 3912 565 
Q 3275 0 1925 0 
L 628 0 
L 628 4666 
z
" transform="scale(0.015625)"/>
     <path id="DejaVuSans-63" d="M 3122 3366 
L 3122 2828 
Q 2878 2963 2633 3030 
Q 2388 3097 2138 3097 
Q 1578 3097 1268 2742 
Q 959 2388 959 1747 
Q 959 1106 1268 751 
Q 1578 397 2138 397 
Q 2388 397 2633 464 
Q 2878 531 3122 666 
L 3122 134 
Q 2881 22 2623 -34 
Q 2366 -91 2075 -91 
Q 1284 -91 818 406 
Q 353 903 353 1747 
Q 353 2603 823 3093 
Q 1294 3584 2113 3584 
Q 2378 3584 2631 3529 
Q 2884 3475 3122 3366 
z
" transform="scale(0.015625)"/>
     <path id="DejaVuSans-41" d="M 2188 4044 
L 1331 1722 
L 3047 1722 
L 2188 4044 
z
M 1831 4666 
L 2547 4666 
L 4325 0 
L 3669 0 
L 3244 1197 
L 1141 1197 
L 716 0 
L 50 0 
L 1831 4666 
z
" transform="scale(0.015625)"/>
     <path id="DejaVuSans-2a" d="M 3009 3897 
L 1888 3291 
L 3009 2681 
L 2828 2375 
L 1778 3009 
L 1778 1831 
L 1422 1831 
L 1422 3009 
L 372 2375 
L 191 2681 
L 1313 3291 
L 191 3897 
L 372 4206 
L 1422 3572 
L 1422 4750 
L 1778 4750 
L 1778 3572 
L 2828 4206 
L 3009 3897 
z
" transform="scale(0.015625)"/>
     <path id="DejaVuSans-39" d="M 703 97 
L 703 672 
Q 941 559 1184 500 
Q 1428 441 1663 441 
Q 2288 441 2617 861 
Q 2947 1281 2994 2138 
Q 2813 1869 2534 1725 
Q 2256 1581 1919 1581 
Q 1219 1581 811 2004 
Q 403 2428 403 3163 
Q 403 3881 828 4315 
Q 1253 4750 1959 4750 
Q 2769 4750 3195 4129 
Q 3622 3509 3622 2328 
Q 3622 1225 3098 567 
Q 2575 -91 1691 -91 
Q 1453 -91 1209 -44 
Q 966 3 703 97 
z
M 1959 2075 
Q 2384 2075 2632 2365 
Q 2881 2656 2881 3163 
Q 2881 3666 2632 3958 
Q 2384 4250 1959 4250 
Q 1534 4250 1286 3958 
Q 1038 3666 1038 3163 
Q 1038 2656 1286 2365 
Q 1534 2075 1959 2075 
z
" transform="scale(0.015625)"/>
    </defs>
    <use xlink:href="#DejaVuSans-44"/>
    <use xlink:href="#DejaVuSans-79" x="77.001953"/>
    <use xlink:href="#DejaVuSans-6e" x="136.181641"/>
    <use xlink:href="#DejaVuSans-61" x="199.560547"/>
    <use xlink:href="#DejaVuSans-6d" x="260.839844"/>
    <use xlink:href="#DejaVuSans-69" x="358.251953"/>
    <use xlink:href="#DejaVuSans-63" x="386.035156"/>
    <use xlink:href="#DejaVuSans-20" x="441.015625"/>
    <use xlink:href="#DejaVuSans-47" x="472.802734"/>
    <use xlink:href="#DejaVuSans-65" x="550.292969"/>
    <use xlink:href="#DejaVuSans-6f" x="611.816406"/>
    <use xlink:href="#DejaVuSans-6d" x="672.998047"/>
    <use xlink:href="#DejaVuSans-65" x="770.410156"/>
    <use xlink:href="#DejaVuSans-74" x="831.933594"/>
    <use xlink:href="#DejaVuSans-72" x="871.142578"/>
    <use xlink:href="#DejaVuSans-79" x="912.255859"/>
    <use xlink:href="#DejaVuSans-20" x="971.435547"/>
    <use xlink:href="#DejaVuSans-41" x="1003.222656"/>
    <use xlink:href="#DejaVuSans-6e" x="1071.630859"/>
    <use xlink:href="#DejaVuSans-61" x="1135.009766"/>
    <use xlink:href="#DejaVuSans-6c" x="1196.289062"/>
    <use xlink:href="#DejaVuSans-79" x="1224.072266"/>
    <use xlink:href="#DejaVuSans-73" x="1283.251953"/>
    <use xlink:href="#DejaVuSans-69" x="1335.351562"/>
    <use xlink:href="#DejaVuSans-73" x="1363.134766"/>
    <use xlink:href="#DejaVuSans-20" x="1415.234375"/>
    <use xlink:href="#DejaVuSans-28" x="1447.021484"/>
    <use xlink:href="#DejaVuSans-74" x="1486.035156"/>
    <use xlink:href="#DejaVuSans-2a" x="1525.244141"/>
    <use xlink:href="#DejaVuSans-20" x="1575.244141"/>
    <use xlink:href="#DejaVuSans-3d" x="1607.03125"/>
    <use xlink:href="#DejaVuSans-20" x="1690.820312"/>
    <use xlink:href="#DejaVuSans-35" x="1722.607422"/>
    <use xlink:href="#DejaVuSans-2e" x="1786.230469"/>
    <use xlink:href="#DejaVuSans-39" x="1818.017578"/>
    <use xlink:href="#DejaVuSans-30" x="1881.640625"/>
    <use xlink:href="#DejaVuSans-39" x="1945.263672"/>
    <use xlink:href="#DejaVuSans-37" x="2008.886719"/>
    <use xlink:href="#DejaVuSans-29" x="2072.509766"/>
   </g>
  </g>
 </g>
 <defs>
  <clipPath id="pa36873cb11">
   <rect x="32.56" y="50.96458" width="497.315" height="426.27084"/>
  </clipPath>
  <clipPath id="p9d8837ef90">
   <rect x="604.709773" y="48.267273" width="431.665455" height="431.665455"/>
  </clipPath>
 </defs>
</svg>
